<?xml version="1.0" standalone="no"?>
<!DOCTYPE svg PUBLIC "-//W3C//DTD SVG 20010904//EN"
 "http://www.w3.org/TR/2001/REC-SVG-20010904/DTD/svg10.dtd">
<svg version="1.0" xmlns="http://www.w3.org/2000/svg"
 width="4444.000000pt" height="4444.000000pt" viewBox="0 0 4444.000000 4444.000000"
 preserveAspectRatio="xMidYMid meet">

<g transform="translate(0.000000,4444.000000) scale(0.100000,-0.100000)"
fill="#000000" stroke="none">
<path d="M23270 39195 c-14 -2 -59 -7 -101 -10 l-75 -6 -13 -201 c-9 -141 -9
-203 -2 -207 6 -4 69 -16 141 -26 83 -12 130 -23 130 -31 0 -6 -38 -491 -85
-1077 -47 -586 -85 -1078 -85 -1094 l0 -29 153 -13 c138 -12 393 -39 572 -61
151 -19 269 -8 350 33 21 11 63 44 93 74 l53 55 16 -23 c28 -42 136 -141 196
-180 86 -56 203 -93 413 -133 104 -20 263 -52 353 -72 90 -19 167 -31 171 -27
13 15 211 916 227 1028 41 301 -25 552 -187 716 -132 134 -287 191 -520 192
-227 0 -371 -54 -511 -193 -145 -145 -226 -327 -279 -633 -30 -175 -73 -269
-143 -319 -32 -23 -47 -22 -302 5 l-110 12 3 40 c1 22 54 512 117 1089 63 577
113 1052 111 1054 -21 21 -589 51 -686 37z m1890 -1615 c71 -36 110 -120 110
-236 0 -55 -91 -569 -103 -580 -8 -8 -160 27 -203 46 -61 26 -120 85 -141 138
-24 62 -24 266 0 365 31 127 99 228 182 271 41 22 108 20 155 -4z"/>
<path d="M19284 39115 c-133 -17 -256 -40 -379 -71 -113 -29 -287 -83 -297
-92 -7 -8 55 -388 65 -398 3 -4 68 -1 144 4 75 6 139 10 140 8 4 -3 333 -2160
333 -2178 0 -7 15 -9 43 -5 23 3 132 18 242 33 110 14 201 27 202 28 1 1 -72
604 -163 1341 -90 737 -164 1341 -164 1343 0 5 -68 -1 -166 -13z"/>
<path d="M17896 38885 c-142 -30 -264 -56 -271 -58 -8 -4 55 -308 221 -1059
128 -579 233 -1063 234 -1074 0 -19 -10 -24 -77 -39 -81 -17 -517 -122 -543
-130 -12 -4 -26 37 -69 203 -91 353 -158 591 -210 747 -48 146 -143 397 -159
423 -7 10 -65 -11 -252 -92 -134 -58 -247 -109 -252 -114 -5 -5 12 -54 38
-113 74 -165 168 -412 218 -569 78 -245 184 -620 177 -624 -4 -3 -41 -14 -83
-25 -113 -29 -169 -6 -213 86 -10 20 -89 268 -177 552 -88 284 -161 517 -162
518 -5 5 -498 -155 -506 -164 -4 -4 55 -190 132 -413 157 -456 199 -603 201
-705 2 -106 -43 -165 -127 -165 -47 0 -102 49 -143 127 -17 32 -111 279 -208
548 -98 270 -179 492 -181 494 -4 4 -218 -74 -399 -145 -65 -25 -109 -48 -109
-56 1 -7 67 -177 147 -379 178 -448 187 -477 194 -605 10 -177 -31 -247 -175
-303 -200 -77 -756 -327 -905 -407 -38 -20 -70 -34 -71 -33 -2 2 -218 443
-481 979 -263 536 -481 979 -486 984 -11 13 -302 -133 -444 -223 -135 -85
-317 -219 -312 -229 3 -4 46 -83 97 -177 51 -93 94 -172 96 -174 2 -2 62 22
134 54 78 35 134 55 139 49 5 -5 239 -446 521 -979 l512 -971 292 146 c160 80
318 158 351 172 33 15 114 52 180 84 66 31 212 96 325 144 377 162 410 178
460 216 62 48 97 96 119 169 10 31 22 56 27 55 5 -1 41 -17 79 -36 117 -57
210 -65 344 -27 90 25 162 67 224 131 51 54 117 166 117 199 0 24 19 22 81 -7
79 -36 182 -53 269 -44 36 3 182 40 325 81 436 125 1114 287 1453 349 93 16
94 17 89 43 -3 14 -117 614 -254 1334 -136 719 -252 1307 -258 1306 -5 0 -126
-25 -269 -54z"/>
<path d="M26507 38458 c-26 -106 -47 -198 -47 -203 0 -6 61 -31 135 -55 83
-28 133 -49 131 -56 -21 -54 -398 -1505 -393 -1511 9 -9 513 -10 523 -1 9 9
543 1806 544 1829 0 11 -32 26 -117 52 -197 62 -419 105 -668 132 l-60 6 -48
-193z"/>
<path d="M15747 38546 c-63 -23 -107 -64 -138 -130 -46 -98 -37 -202 27 -299
14 -22 24 -40 22 -41 -2 -1 -24 -14 -49 -29 -59 -34 -97 -84 -121 -161 -76
-240 171 -483 387 -382 68 31 120 92 141 162 l16 56 26 -25 c93 -89 261 -88
355 1 64 60 96 171 78 269 -35 184 -180 295 -343 260 l-38 -8 0 55 c0 155
-124 286 -270 285 -30 0 -72 -6 -93 -13z"/>
<path d="M21783 38389 c-83 -12 -192 -50 -261 -91 -91 -53 -211 -180 -259
-273 -109 -212 -129 -378 -107 -905 19 -471 19 -619 -1 -695 -34 -133 -131
-213 -287 -240 l-38 -6 0 -265 0 -265 48 6 c83 12 209 44 272 69 205 84 365
267 444 509 29 88 56 256 56 346 0 33 2 61 4 61 2 0 24 -9 48 -20 93 -41 162
-49 528 -59 195 -5 356 -8 358 -6 7 7 41 800 42 960 0 178 -16 301 -54 412
-121 356 -400 518 -793 462z m213 -524 c33 -19 50 -39 73 -88 45 -92 53 -173
45 -454 l-7 -243 -86 0 c-125 0 -182 20 -245 83 -62 62 -81 116 -96 266 -17
161 6 283 70 376 58 85 161 110 246 60z"/>
<path d="M27736 38372 c-2 -4 -133 -416 -291 -917 -158 -500 -299 -932 -313
-959 -33 -60 -93 -113 -146 -127 -65 -18 -190 -5 -289 28 -104 37 -208 94
-326 183 l-88 66 -78 -220 c-43 -122 -88 -249 -101 -284 l-23 -62 52 -31 c166
-97 377 -180 547 -216 121 -25 309 -23 413 5 224 61 400 219 517 464 50 103
673 1890 662 1899 -6 6 -115 42 -489 164 -24 7 -44 11 -47 7z"/>
<path d="M28620 37848 c-29 -79 -61 -165 -71 -191 l-19 -48 131 -62 c112 -53
130 -64 126 -82 -2 -11 -183 -476 -401 -1034 -218 -557 -396 -1014 -394 -1016
2 -1 53 -21 113 -45 61 -24 161 -65 224 -92 63 -26 116 -46 118 -44 6 6 1063
2490 1060 2492 -21 15 -299 123 -407 159 -133 43 -373 105 -411 105 -11 0 -31
-41 -69 -142z"/>
<path d="M30398 36147 l-137 -220 55 -60 c143 -154 235 -317 275 -483 32 -133
24 -301 -21 -439 -27 -83 -53 -149 -65 -163 -1 -2 -87 45 -191 104 -242 137
-591 317 -601 311 -11 -8 -228 -445 -223 -450 3 -2 120 -64 260 -137 451 -235
737 -405 1367 -811 608 -391 937 -638 1667 -1255 34 -28 93 -79 131 -113 183
-161 405 -282 669 -366 l99 -31 28 -110 c34 -137 90 -267 156 -365 54 -79 307
-357 409 -448 33 -29 88 -66 124 -84 60 -30 72 -32 166 -32 l101 0 6 -81 c11
-153 64 -307 150 -434 17 -25 101 -133 186 -240 86 -107 194 -245 241 -307 51
-68 88 -109 95 -104 5 5 181 136 390 293 419 315 486 371 575 490 255 338 234
688 -58 999 -97 103 -185 170 -287 219 -106 51 -191 70 -307 70 -207 0 -417
-91 -634 -276 -102 -86 -156 -123 -216 -146 -47 -18 -131 -24 -162 -12 -9 3
-83 78 -166 166 -147 157 -194 224 -214 309 l-6 26 88 6 c123 9 242 40 350 93
157 76 294 232 353 404 33 95 33 265 1 370 -47 148 -121 269 -240 389 -128
129 -245 206 -417 274 -144 57 -410 117 -520 117 -43 0 -74 -26 -317 -257
l-68 -64 36 -70 c43 -86 91 -228 109 -322 7 -40 17 -132 20 -205 l8 -132 -29
10 c-56 22 -184 93 -257 143 -42 29 -173 135 -291 236 l-216 184 20 26 c221
291 334 511 386 751 24 113 25 327 1 422 -72 290 -269 539 -592 750 -166 109
-562 287 -612 276 -18 -4 -315 -410 -306 -418 4 -4 53 -22 108 -40 305 -100
541 -228 687 -375 122 -122 177 -248 178 -405 0 -116 -23 -208 -85 -335 -42
-87 -174 -297 -195 -310 -8 -5 -100 51 -100 61 0 2 24 41 54 86 70 109 100
170 135 276 75 224 39 385 -120 542 -218 215 -477 266 -722 144 -94 -48 -228
-179 -282 -279 -21 -38 -39 -71 -41 -73 -1 -2 -64 37 -140 87 -77 49 -174 111
-216 136 l-78 46 39 77 c179 356 218 733 111 1054 -57 169 -151 332 -269 466
-62 71 -240 230 -281 252 -12 6 -45 -41 -152 -213z m1634 -2014 c50 -48 35
-128 -45 -240 -17 -24 -34 -43 -39 -43 -4 0 -31 22 -59 50 l-52 49 6 51 c7 61
36 111 80 139 43 28 75 26 109 -6z m2197 -1128 c80 -33 132 -66 181 -115 168
-168 81 -377 -173 -415 l-47 -7 0 180 c0 162 -15 310 -36 366 -8 22 2 20 75
-9z m1590 -1691 c79 -40 106 -87 106 -183 0 -63 -4 -83 -25 -116 -42 -69 -110
-134 -290 -278 -96 -77 -182 -146 -192 -154 -14 -13 -22 -8 -67 49 -120 147
-150 266 -94 378 32 65 164 205 240 256 117 78 228 94 322 48z"/>
<path d="M10515 35697 c-80 -56 -359 -260 -374 -273 -2 -2 289 -395 645 -875
357 -480 652 -878 656 -884 5 -8 -33 -43 -110 -101 -64 -49 -173 -134 -241
-188 -87 -69 -128 -96 -137 -90 -7 5 -187 226 -399 492 -256 320 -390 480
-398 475 -44 -26 -417 -343 -417 -353 0 -5 183 -224 406 -486 l407 -477 -35
-31 c-18 -17 -92 -82 -163 -145 -72 -63 -130 -118 -130 -122 0 -4 70 -85 155
-180 85 -95 160 -179 166 -188 10 -12 33 4 145 105 223 200 510 440 725 605
39 30 156 120 260 200 455 352 866 632 1376 936 l316 190 -254 439 c-140 241
-276 471 -302 509 -26 39 -90 113 -142 165 -148 149 -284 210 -470 210 -265 0
-535 -180 -669 -448 -67 -133 -120 -350 -122 -498 0 -42 -2 -46 -12 -30 -36
56 -760 1093 -770 1103 -9 9 -35 -5 -112 -60z m1716 -655 c79 -51 125 -112
314 -415 54 -87 96 -159 94 -161 -2 -2 -94 -61 -204 -131 -110 -70 -272 -177
-360 -237 -88 -61 -165 -112 -172 -115 -13 -5 -34 81 -57 227 -55 363 1 656
151 790 88 77 158 90 234 42z"/>
<path d="M8935 33074 c-89 -19 -230 -87 -320 -155 -177 -134 -399 -400 -543
-651 l-21 -37 442 -402 c243 -221 450 -409 459 -418 17 -15 9 -26 -126 -176
-78 -88 -174 -186 -212 -218 -200 -168 -387 -233 -557 -193 -208 49 -456 253
-628 516 -37 58 -74 113 -81 124 -12 16 -23 1 -110 -160 -53 -99 -123 -229
-155 -290 l-58 -111 60 -69 c92 -107 263 -274 339 -330 157 -118 338 -208 495
-246 118 -29 303 -29 414 1 161 42 316 119 456 224 126 95 222 189 420 412
108 121 262 291 343 377 82 86 148 159 148 162 0 2 -209 208 -465 456 l-465
452 26 34 c36 46 113 101 170 121 67 23 132 6 221 -56 40 -29 210 -192 416
-401 l348 -352 82 78 c135 129 398 377 455 430 l53 49 -166 185 c-91 102 -169
186 -173 187 -4 2 -56 -42 -115 -97 l-108 -99 -184 197 c-238 255 -350 349
-492 414 -125 56 -238 69 -368 42z"/>
<path d="M11177 32616 c-102 -38 -157 -123 -157 -243 0 -99 27 -168 96 -242
164 -177 431 -148 485 53 17 64 7 163 -23 228 -35 75 -107 151 -175 184 -65
32 -169 42 -226 20z"/>
<path d="M9422 30929 c-98 -50 -154 -163 -135 -274 6 -33 14 -67 17 -75 5 -13
-8 -15 -86 -15 -84 0 -98 -3 -140 -28 -118 -69 -158 -211 -99 -350 28 -65 104
-143 176 -180 55 -29 68 -32 156 -32 89 0 99 2 144 30 108 67 143 199 90 337
-5 12 7 14 75 10 99 -6 151 12 209 69 54 55 75 112 69 192 -10 122 -98 246
-217 304 -78 39 -196 44 -259 12z"/>
<path d="M32310 22933 c-33 -6 -1524 -461 -1860 -568 -867 -275 -1455 -497
-2233 -841 -1843 -816 -3283 -1709 -4459 -2765 -144 -129 -157 -130 -242 -15
-154 208 -798 878 -1021 1061 -66 55 -176 151 -245 215 -134 123 -259 225
-405 331 -185 134 -605 409 -735 482 -774 429 -911 498 -1322 661 -480 190
-946 323 -1645 470 -446 94 -493 101 -983 150 -605 61 -720 68 -1130 68 -483
0 -891 -26 -1363 -88 -332 -42 -749 -119 -812 -148 -16 -7 -63 -24 -104 -37
-56 -17 -123 -55 -280 -157 -313 -204 -893 -578 -2926 -1887 -1023 -659 -1999
-1288 -2170 -1398 -170 -110 -404 -256 -518 -325 -114 -68 -207 -125 -205
-127 2 -1 176 15 388 35 363 36 586 54 970 82 226 16 903 13 1375 -6 298 -12
512 -27 910 -66 286 -28 619 -59 740 -70 285 -26 397 -46 1160 -209 154 -32
352 -73 440 -90 184 -35 761 -208 1005 -301 85 -33 304 -114 485 -181 463
-170 666 -251 1010 -404 747 -331 1211 -572 1655 -855 58 -37 121 -76 140 -86
63 -34 627 -422 970 -667 340 -244 830 -620 830 -638 0 -14 -103 -120 -131
-134 -43 -23 -78 -18 -226 29 -1982 634 -4248 1055 -6453 1201 -259 17 -680
39 -1090 57 -362 16 -1629 16 -2160 0 -1502 -46 -1954 -65 -2550 -107 -190
-14 -358 -25 -375 -26 -29 -1 -29 -1 -5 -8 14 -4 205 -11 425 -15 1279 -21
2422 -63 4180 -151 713 -36 1319 -84 2140 -171 628 -66 1409 -180 2223 -324
906 -161 1292 -247 2387 -536 1118 -294 1126 -297 1347 -399 79 -37 368 -154
643 -260 275 -106 624 -241 775 -301 364 -142 314 -142 704 5 748 282 1868
674 2251 787 863 255 1798 447 2717 559 964 117 2988 240 4532 275 236 5 431
11 433 13 8 8 -74 13 -1472 79 -363 17 -1729 17 -2040 0 -799 -44 -1379 -99
-2005 -188 -806 -114 -1659 -294 -2378 -499 -188 -53 -204 -53 -310 2 -85 45
-571 328 -596 348 -20 15 -20 15 0 30 32 25 188 117 379 222 1606 890 3467
1496 5610 1827 641 99 1081 141 1935 186 1000 52 1487 60 2027 36 332 -15 379
-16 430 -2 73 18 662 279 1173 519 l65 31 -135 17 c-141 19 -1228 106 -1695
136 -339 22 -1320 25 -1635 5 -1202 -75 -2313 -232 -3195 -451 -1429 -355
-2819 -926 -4035 -1657 -360 -216 -697 -439 -982 -651 -206 -153 -176 -146
-362 -83 -86 30 -156 58 -156 64 0 14 355 362 538 527 399 361 786 651 1487
1114 547 362 898 566 1435 833 656 327 1213 553 2080 843 1572 525 3427 874
5280 993 490 32 723 38 1360 35 1102 -6 1050 -7 1092 16 35 19 422 361 1195
1054 199 179 361 326 359 328 -12 12 -604 -27 -1181 -78 -1792 -157 -2242
-215 -3730 -475 -745 -130 -1038 -197 -1850 -419 -1355 -371 -2086 -605 -2835
-908 -1118 -453 -2325 -1089 -3160 -1667 -287 -198 -827 -608 -1105 -839 -347
-288 -558 -490 -910 -871 -109 -118 -241 -259 -294 -312 -90 -92 -98 -98 -136
-97 -56 0 -263 33 -272 43 -9 9 7 40 247 476 205 374 317 562 454 765 762
1127 1916 2144 3388 2988 851 488 1699 859 2873 1257 1012 343 1871 561 2770
705 127 21 245 44 263 52 18 9 44 30 57 47 13 17 109 190 215 385 225 416 540
994 582 1069 16 28 26 51 21 51 -4 -1 -19 -4 -33 -6z"/>
<path d="M19465 12470 c-56 -14 -103 -38 -144 -75 -50 -46 -117 -144 -132
-196 l-12 -39 -59 0 -58 0 0 -70 0 -70 360 0 360 0 0 153 c0 139 -2 157 -22
197 -46 89 -169 132 -293 100z m110 -150 c12 -13 19 -42 23 -90 l5 -70 -127 0
-127 0 27 50 c39 73 105 130 147 130 21 0 41 -8 52 -20z"/>
<path d="M13815 12037 c-165 -95 -413 -239 -551 -319 -138 -80 -343 -197 -457
-259 l-206 -114 -1 -142 0 -142 38 -6 c199 -31 323 -65 437 -119 292 -138 488
-359 570 -643 30 -100 55 -253 55 -330 l0 -53 -765 0 -765 0 0 670 0 671 -157
-3 -158 -3 -5 -915 c-5 -903 -5 -916 -26 -977 -27 -79 -75 -154 -120 -188 -88
-67 -222 -100 -388 -93 l-91 3 -16 -150 c-13 -111 -14 -152 -5 -158 6 -4 94
-6 196 -4 146 4 201 9 263 25 238 64 406 235 466 474 21 82 41 237 41 318 l0
50 1485 0 1485 0 0 1285 0 1285 -155 0 -155 0 0 -1145 0 -1145 -403 0 -403 0
-12 163 c-17 239 -52 382 -132 555 -136 290 -413 536 -719 637 l-54 17 49 28
c27 15 175 92 329 172 154 80 362 189 463 243 l182 97 0 194 c0 107 -3 194 -7
194 -5 -1 -143 -78 -308 -173z"/>
<path d="M15615 12189 c-55 -5 -106 -11 -112 -14 -9 -3 -13 -31 -13 -94 l0
-90 43 -5 c23 -3 92 -11 152 -18 l110 -13 3 -1162 2 -1163 155 0 155 0 0 1285
0 1285 -197 -1 c-109 -1 -243 -6 -298 -10z"/>
<path d="M23850 11055 l0 -1145 -435 0 -435 0 39 58 c58 85 110 194 133 281
31 112 31 391 0 506 -94 344 -345 535 -707 535 -365 0 -637 -199 -750 -550
-24 -73 -29 -107 -33 -236 -7 -227 31 -378 134 -531 l42 -63 -474 0 -474 0 0
670 0 670 -160 0 -160 0 0 -880 c0 -764 -2 -891 -16 -957 -19 -92 -61 -179
-111 -229 -80 -80 -237 -122 -409 -110 l-91 7 -16 -153 c-12 -118 -13 -154 -4
-161 22 -15 376 -1 447 18 252 66 420 236 480 485 11 47 25 147 32 222 l12
138 1635 2 1636 3 3 1283 2 1282 -160 0 -160 0 0 -1145z m-1304 -41 c59 -16
138 -71 185 -129 84 -105 125 -263 116 -450 -7 -139 -25 -213 -74 -308 -47
-89 -100 -142 -181 -180 -63 -30 -74 -32 -182 -32 -103 0 -120 3 -164 25 -26
13 -72 51 -102 82 -107 116 -160 291 -151 498 9 188 51 304 149 403 106 107
238 137 404 91z"/>
<path d="M24725 12195 c-5 -2 -54 -7 -107 -10 l-98 -7 0 -93 0 -94 43 -5 c23
-3 89 -11 147 -18 l105 -13 3 -1163 2 -1163 158 3 157 3 3 1283 2 1282 -202
-1 c-112 0 -207 -2 -213 -4z"/>
<path d="M26430 11055 l0 -1145 -245 0 -245 0 0 -140 0 -140 4975 0 4975 0 0
1285 0 1285 -160 0 -160 0 0 -1145 0 -1145 -405 0 -405 0 0 665 0 665 -155 0
-155 0 0 -665 0 -665 -414 0 -414 0 -5 328 c-4 292 -6 336 -25 409 -39 152
-132 302 -240 388 -191 152 -433 210 -844 203 -119 -2 -219 -6 -222 -8 -6 -7
-40 -270 -35 -273 2 -2 72 0 154 3 551 25 811 -106 879 -442 12 -59 16 -141
16 -343 l0 -265 -836 0 c-665 0 -834 3 -828 13 5 6 20 30 35 52 47 71 97 168
117 232 46 140 53 363 16 522 -63 281 -245 473 -509 541 -57 15 -111 20 -199
20 -154 0 -256 -24 -380 -87 -73 -38 -109 -65 -182 -138 -76 -76 -98 -105
-137 -185 -74 -151 -91 -225 -90 -415 0 -132 4 -174 22 -240 23 -86 78 -211
115 -260 12 -16 26 -36 30 -42 6 -10 -84 -13 -433 -13 l-441 0 0 670 0 670
-155 0 -155 0 0 -670 0 -670 -415 0 -415 0 0 308 c0 334 -10 478 -40 595 -60
238 -217 402 -441 463 -101 27 -284 25 -379 -5 -312 -97 -606 -376 -840 -798
-33 -59 -60 -105 -60 -101 0 3 7 64 15 135 26 222 35 510 35 1111 l0 582 -160
0 -160 0 0 -1145z m4759 -41 c139 -44 236 -158 282 -331 29 -108 29 -306 0
-414 -42 -161 -117 -266 -230 -322 -63 -31 -70 -32 -186 -32 -98 0 -126 3
-155 19 -102 54 -176 148 -221 281 -87 251 -43 558 102 706 101 104 260 141
408 93z m-3296 -33 c93 -45 165 -141 204 -272 13 -44 17 -123 20 -426 l5 -373
-686 0 c-377 0 -686 4 -686 8 0 4 16 48 35 96 200 494 508 866 809 977 75 27
233 22 299 -10z"/>
<path d="M22085 12075 c-5 -2 -22 -6 -37 -9 -38 -9 -95 -61 -120 -110 -28 -54
-28 -147 0 -201 47 -91 136 -135 234 -114 97 21 157 104 158 217 0 87 -41 161
-110 197 -26 14 -108 27 -125 20z"/>
<path d="M22560 12055 c-79 -36 -123 -107 -123 -200 0 -192 211 -294 347 -167
96 90 87 263 -17 346 -33 26 -48 31 -105 33 -45 2 -79 -2 -102 -12z"/>
<path d="M30965 12035 c-92 -32 -149 -145 -125 -246 15 -59 67 -124 117 -146
39 -16 111 -17 150 -2 72 27 123 110 123 199 0 151 -126 244 -265 195z"/>
<path d="M34286 11965 c-47 -17 -91 -57 -118 -109 -16 -31 -19 -54 -16 -112 3
-61 8 -79 34 -116 73 -104 218 -120 312 -34 110 99 82 294 -51 361 -57 28
-103 31 -161 10z"/>
<path d="M34792 11949 c-125 -62 -150 -244 -50 -351 70 -74 187 -85 270 -26
76 53 108 184 69 273 -12 27 -29 58 -39 68 -53 58 -170 75 -250 36z"/>
<path d="M27155 11927 c-118 -67 -139 -231 -41 -333 52 -54 109 -71 180 -55
66 15 100 42 130 103 55 110 16 240 -86 294 -43 22 -136 18 -183 -9z"/>
<path d="M19255 11729 c-170 -14 -156 -4 -153 -112 l3 -92 125 -12 c69 -7 135
-15 148 -18 l22 -5 0 -930 0 -931 158 3 157 3 0 1050 0 1050 -175 1 c-96 1
-224 -2 -285 -7z"/>
<path d="M17885 11356 c-49 -21 -102 -87 -113 -142 -37 -174 120 -315 273
-245 81 36 120 111 113 216 -5 78 -40 135 -102 165 -49 23 -126 26 -171 6z"/>
<path d="M8905 11274 c-302 -67 -492 -270 -567 -609 -19 -82 -21 -140 -27
-640 -7 -537 -7 -552 -30 -615 -30 -89 -86 -166 -152 -211 -64 -45 -126 -66
-233 -79 -44 -5 -81 -12 -84 -14 -3 -4 -30 -285 -32 -334 0 -11 15 -12 68 -7
245 23 412 94 552 235 99 98 162 207 204 354 30 100 50 284 40 358 l-7 52 31
-23 c50 -35 135 -71 214 -88 64 -14 192 -17 1046 -20 l972 -4 0 811 0 811
-157 -3 -158 -3 -3 -667 -2 -668 -399 0 -399 0 -5 393 c-5 411 -7 439 -56 580
-48 138 -142 261 -245 322 -102 60 -177 78 -346 81 -114 3 -174 -1 -225 -12z
m302 -266 c73 -27 155 -104 193 -182 61 -123 62 -137 67 -545 l5 -373 -214 5
c-150 3 -229 9 -267 20 -239 70 -341 237 -341 559 0 203 44 343 136 434 104
105 271 137 421 82z"/>
<path d="M18497 10458 c-3 -679 -6 -794 -21 -868 -71 -363 -224 -530 -501
-547 -311 -18 -514 177 -570 547 -20 126 -19 390 1 532 13 96 68 337 89 389 5
13 -19 11 -167 -16 l-173 -31 -23 -85 c-64 -240 -90 -494 -73 -703 37 -441
178 -700 456 -832 140 -67 316 -92 508 -75 230 22 382 86 513 216 69 68 89 97
132 185 85 172 124 344 142 615 5 83 10 444 10 803 l0 652 -159 0 -160 0 -4
-782z"/>
<path d="M10295 9341 c-74 -19 -112 -51 -144 -121 -36 -79 -19 -191 37 -253
32 -36 94 -60 153 -60 76 0 133 32 174 97 26 43 30 59 30 120 0 60 -4 79 -28
118 -44 76 -142 119 -222 99z"/>
<path d="M28995 9335 c-22 -8 -56 -32 -76 -54 -83 -93 -78 -233 12 -318 43
-40 77 -53 140 -53 66 0 106 18 151 68 80 89 77 221 -7 308 -59 61 -136 78
-220 49z"/>
<path d="M29545 9335 c-96 -26 -165 -132 -151 -232 31 -225 316 -272 402 -67
19 44 18 136 -2 182 -41 98 -142 146 -249 117z"/>
<path d="M10780 9318 c-127 -65 -157 -235 -61 -342 89 -98 223 -100 308 -3 42
47 56 96 51 173 -3 50 -10 73 -34 106 -38 55 -101 88 -169 88 -33 0 -66 -8
-95 -22z"/>
<path d="M9829 8107 c-105 -30 -199 -110 -250 -212 -57 -117 -59 -138 -59
-850 0 -714 2 -734 60 -850 53 -106 132 -173 241 -206 60 -18 89 -21 187 -17
106 4 124 7 185 35 118 56 193 150 234 294 17 59 18 116 18 744 0 628 -1 685
-18 744 -41 144 -108 231 -224 288 -74 36 -79 37 -202 40 -81 2 -142 -2 -172
-10z m303 -137 c79 -37 133 -113 163 -227 23 -86 22 -1311 0 -1398 -34 -130
-103 -211 -204 -239 -159 -45 -310 5 -375 123 -61 112 -60 100 -63 770 -5 714
-1 753 69 870 39 64 67 87 139 113 74 26 204 20 271 -12z"/>
<path d="M11729 8102 c-98 -33 -185 -106 -230 -193 -11 -22 -29 -75 -40 -116
-18 -72 -19 -116 -19 -748 0 -632 1 -676 19 -748 33 -129 85 -206 179 -265 78
-50 148 -65 281 -60 99 3 125 8 173 30 112 52 194 155 235 295 13 48 17 122
21 421 l4 362 -206 0 -206 0 0 -65 0 -65 140 0 140 0 0 -252 c0 -362 -17 -436
-116 -527 -148 -135 -396 -94 -485 80 -46 91 -49 135 -49 794 0 676 3 707 57
806 51 95 128 140 248 147 140 7 239 -47 294 -161 37 -75 51 -157 51 -299 l0
-108 66 0 67 0 -6 153 c-3 88 -12 176 -21 210 -38 137 -121 243 -234 295 -50
23 -72 26 -182 29 -101 2 -136 -1 -181 -15z"/>
<path d="M13649 8107 c-149 -42 -257 -168 -294 -342 -22 -103 -22 -1337 0
-1440 32 -150 110 -257 233 -317 66 -33 68 -33 212 -33 142 0 146 1 212 32
132 62 213 178 243 347 22 130 22 1252 0 1382 -30 169 -111 285 -243 347 -62
29 -76 32 -192 34 -80 2 -142 -2 -171 -10z m262 -123 c34 -10 75 -30 98 -50
46 -40 95 -131 111 -208 7 -36 10 -261 8 -712 l-3 -659 -23 -58 c-36 -88 -78
-138 -147 -172 -54 -27 -69 -30 -155 -30 -82 0 -103 4 -152 27 -70 32 -117 94
-150 193 l-23 70 0 665 0 665 23 63 c43 119 92 174 182 206 59 20 159 20 231
0z"/>
<path d="M26529 8107 c-147 -42 -245 -151 -289 -323 -19 -73 -20 -112 -20
-739 0 -627 1 -666 20 -739 37 -147 107 -239 225 -297 69 -34 71 -34 205 -34
157 0 194 9 282 68 107 72 166 181 189 352 15 117 7 1313 -10 1380 -37 143
-117 247 -235 305 -66 33 -75 34 -195 37 -81 2 -142 -2 -172 -10z m299 -137
c83 -36 135 -107 166 -227 14 -52 16 -150 16 -698 0 -548 -2 -646 -16 -698
-31 -119 -83 -190 -166 -228 -45 -20 -69 -24 -153 -24 -84 1 -108 5 -147 24
-85 41 -136 118 -163 249 -22 100 -21 1256 0 1357 30 139 93 224 193 259 68
23 200 17 270 -14z"/>
<path d="M32216 8109 c-59 -14 -154 -69 -186 -107 -80 -97 -120 -228 -120
-391 0 -190 43 -294 180 -432 47 -47 141 -125 210 -174 166 -118 289 -240 330
-328 67 -143 58 -321 -24 -462 -50 -85 -166 -134 -286 -122 -198 21 -290 150
-290 406 l0 101 -65 0 -65 0 0 -99 c0 -231 65 -385 197 -469 78 -50 148 -65
282 -60 105 3 122 6 182 35 86 40 138 88 179 164 44 84 60 145 67 271 16 274
-75 418 -412 659 -115 82 -251 212 -293 281 -49 83 -69 187 -55 298 27 212
132 320 313 320 93 0 156 -24 216 -84 63 -64 92 -143 101 -278 l6 -88 63 0 64
0 0 44 c0 25 -5 80 -11 123 -28 205 -122 334 -278 383 -68 22 -230 26 -305 9z"/>
<path d="M7620 7044 l0 -1066 288 4 c260 5 293 7 354 27 115 37 188 109 240
239 22 55 23 68 23 317 0 248 -1 263 -23 316 -45 113 -108 175 -215 214 -60
22 -61 23 -32 30 53 14 121 53 152 89 71 80 104 275 85 495 -18 196 -67 291
-182 348 -86 43 -173 53 -462 53 l-228 0 0 -1066z m563 922 c92 -28 141 -88
166 -204 14 -68 14 -305 0 -374 -15 -71 -52 -133 -97 -163 -65 -42 -139 -55
-329 -55 l-173 0 0 405 0 405 193 0 c136 0 208 -4 240 -14z m50 -964 c77 -38
115 -82 144 -165 26 -74 27 -445 1 -527 -25 -80 -69 -134 -136 -167 -56 -28
-60 -28 -274 -31 l-218 -3 0 466 0 467 208 -4 207 -3 68 -33z"/>
<path d="M15260 7046 l0 -1066 70 0 70 0 2 478 3 477 90 3 c50 2 137 -2 195
-8 180 -17 270 -78 310 -209 18 -55 20 -93 20 -300 1 -252 10 -363 35 -411 15
-29 18 -30 86 -30 l70 0 -15 28 c-28 55 -36 136 -36 370 0 278 -8 342 -56 439
-41 85 -93 131 -186 164 l-59 22 50 17 c111 40 180 111 223 231 21 59 23 80
23 284 0 186 -3 229 -18 280 -36 116 -85 186 -163 231 -85 50 -129 56 -431 61
l-283 5 0 -1066z m566 919 c94 -28 157 -105 184 -225 8 -37 11 -122 8 -255 -4
-226 -13 -263 -86 -338 -65 -66 -119 -80 -339 -85 l-193 -4 0 461 0 461 188 0
c137 0 202 -4 238 -15z"/>
<path d="M21210 7045 l0 -1065 65 0 65 0 0 1065 0 1065 -65 0 -65 0 0 -1065z"/>
<path d="M22350 7045 l0 -1065 60 0 60 0 0 942 c0 523 4 938 9 933 4 -6 152
-422 329 -925 176 -503 324 -923 327 -932 6 -15 20 -18 81 -18 l74 0 0 1065 0
1065 -60 0 -60 0 0 -892 c0 -491 -4 -888 -8 -882 -7 7 -534 1482 -619 1732
l-15 42 -89 0 -89 0 0 -1065z"/>
<path d="M24300 7045 l0 -1065 238 0 c281 1 364 10 448 49 83 39 135 88 177
169 63 122 62 109 62 847 0 738 1 725 -62 847 -42 81 -94 130 -177 169 -85 40
-165 49 -443 49 l-243 0 0 -1065z m581 919 c74 -22 148 -96 178 -179 38 -101
43 -205 38 -809 -4 -622 -4 -617 -63 -727 -16 -29 -47 -65 -68 -81 -68 -49
-119 -58 -338 -58 l-198 0 0 935 0 935 198 0 c153 0 211 -4 253 -16z"/>
<path d="M28140 7045 l0 -1065 65 0 65 0 2 940 3 940 330 -940 330 -940 77 0
78 0 0 1065 0 1065 -65 0 -65 0 -2 -892 -3 -892 -316 889 -316 890 -91 3 -92
3 0 -1066z"/>
<path d="M30090 7045 l0 -1065 415 0 415 0 0 65 0 65 -345 0 -345 0 0 445 0
445 290 0 290 0 0 60 0 60 -290 0 -290 0 0 430 0 430 345 0 345 0 0 65 0 65
-415 0 -415 0 0 -1065z"/>
<path d="M33800 7045 l0 -1065 65 0 65 0 0 1065 0 1065 -65 0 -65 0 0 -1065z"/>
<path d="M35146 7057 c-126 -578 -231 -1058 -234 -1064 -3 -10 13 -13 60 -13
l64 0 49 218 c26 119 52 227 56 240 l9 22 325 0 325 0 9 -22 c4 -13 30 -121
56 -240 l49 -218 69 0 c67 0 69 1 64 23 -8 29 -457 2044 -464 2080 l-5 27
-102 0 -101 0 -229 -1053z m484 206 c82 -365 150 -670 150 -678 0 -13 -39 -15
-305 -15 -279 0 -305 1 -305 17 0 17 287 1317 297 1343 3 8 7 11 9 5 2 -5 71
-308 154 -672z"/>
<path d="M18420 7045 l0 -65 275 0 275 0 0 65 0 65 -275 0 -275 0 0 -65z"/>
</g>
</svg>
