<?xml version="1.0" encoding="UTF-8"?>
<!DOCTYPE svg PUBLIC "-//W3C//DTD SVG 1.1//EN" "http://www.w3.org/Graphics/SVG/1.1/DTD/svg11.dtd">
<svg xmlns="http://www.w3.org/2000/svg" version="1.1" width="4444px" height="4444px" style="shape-rendering:geometricPrecision; text-rendering:geometricPrecision; image-rendering:optimizeQuality; fill-rule:evenodd; clip-rule:evenodd" xmlns:xlink="http://www.w3.org/1999/xlink">
<g><path style="opacity:0.984" fill="#044f33" d="M 2320.5,523.5 C 2337.5,523.333 2354.5,523.5 2371.5,524C 2379.92,524.594 2388.26,525.761 2396.5,527.5C 2388.11,600.108 2380.11,672.774 2372.5,745.5C 2383.85,746.613 2395.19,747.947 2406.5,749.5C 2414,747.508 2419.16,742.842 2422,735.5C 2425.52,723.705 2428.19,711.705 2430,699.5C 2446.68,639.742 2484.51,619.908 2543.5,640C 2563.74,651.607 2575.24,669.107 2578,692.5C 2578.84,704.872 2578.51,717.205 2577,729.5C 2569.89,762.527 2562.73,795.527 2555.5,828.5C 2533.28,823.528 2510.94,819.028 2488.5,815C 2468.14,811.106 2451.8,800.939 2439.5,784.5C 2430.52,795.903 2418.69,801.57 2404,801.5C 2374.89,797.877 2345.72,794.877 2316.5,792.5C 2322.17,718.923 2328.17,645.423 2334.5,572C 2324.94,569.851 2315.27,568.351 2305.5,567.5C 2306.25,553.423 2307.59,539.423 2309.5,525.5C 2313.3,524.896 2316.97,524.23 2320.5,523.5 Z M 2505.5,683.5 C 2515.95,683.98 2522.45,689.314 2525,699.5C 2525.36,702.525 2525.86,705.525 2526.5,708.5C 2523.3,727.858 2519.96,747.191 2516.5,766.5C 2486.86,765.017 2475.03,749.684 2481,720.5C 2481.85,706.976 2487.35,695.81 2497.5,687C 2500.16,685.522 2502.82,684.355 2505.5,683.5 Z"/></g>
<g><path style="opacity:0.982" fill="#044f33" d="M 1942.5,529.5 C 1943.5,529.414 1944.33,529.748 1945,530.5C 1955.92,618.823 1966.75,707.157 1977.5,795.5C 1977.17,796.833 1976.83,798.167 1976.5,799.5C 1960.99,801.692 1945.49,804.025 1930,806.5C 1929.05,806.095 1928.39,805.428 1928,804.5C 1916.84,732.205 1906.01,659.871 1895.5,587.5C 1885.47,587.725 1875.47,588.392 1865.5,589.5C 1863.83,576.461 1861.83,563.461 1859.5,550.5C 1859.83,549.5 1860.17,548.5 1860.5,547.5C 1887.21,538.028 1914.54,532.028 1942.5,529.5 Z"/></g>
<g><path style="opacity:0.982" fill="#044f33" d="M 1811.5,549.5 C 1814.08,549.083 1816.25,549.75 1818,551.5C 1834.52,639.575 1851.35,727.575 1868.5,815.5C 1839.9,821.921 1811.24,828.421 1782.5,835C 1749.71,843.265 1717.04,851.932 1684.5,861C 1670.96,863.319 1658.46,860.819 1647,853.5C 1636.59,883.295 1615.76,895.461 1584.5,890C 1578.86,888.429 1573.69,885.929 1569,882.5C 1566.98,893.744 1561.14,902.244 1551.5,908C 1498.07,930.466 1445.57,954.966 1394,981.5C 1359.09,916.687 1324.43,851.687 1290,786.5C 1281.18,789.3 1272.34,792.967 1263.5,797.5C 1256.75,786.33 1250.25,774.996 1244,763.5C 1243.18,761.299 1243.68,759.466 1245.5,758C 1268.09,740.041 1292.76,725.708 1319.5,715C 1351.62,780.692 1384.12,846.192 1417,911.5C 1450.83,894.5 1485.33,879 1520.5,865C 1528.03,859.103 1531.7,851.269 1531.5,841.5C 1531.03,834.709 1529.86,828.043 1528,821.5C 1517.75,793.746 1506.92,766.246 1495.5,739C 1512.6,731.686 1529.93,724.853 1547.5,718.5C 1560.54,751.919 1573.04,785.585 1585,819.5C 1587.99,827.66 1593.49,833.327 1601.5,836.5C 1609.7,834.608 1613.7,829.441 1613.5,821C 1612.69,811.628 1610.86,802.462 1608,793.5C 1598.4,765.532 1588.9,737.532 1579.5,709.5C 1580.19,707.647 1581.52,706.481 1583.5,706C 1599.42,701.026 1615.26,695.859 1631,690.5C 1642.07,724.367 1652.73,758.367 1663,792.5C 1668.7,809.345 1679.2,813.012 1694.5,803.5C 1683.37,759.275 1668.37,716.442 1649.5,675C 1666.3,666.522 1683.46,658.688 1701,651.5C 1709.7,670.603 1717.04,690.27 1723,710.5C 1730.47,736.703 1737.47,763.036 1744,789.5C 1744.56,790.022 1745.23,790.355 1746,790.5C 1765.73,785.275 1785.57,780.442 1805.5,776C 1806.31,775.692 1806.97,775.192 1807.5,774.5C 1791.58,703.901 1775.91,633.234 1760.5,562.5C 1760.82,561.353 1761.48,560.519 1762.5,560C 1779,556.668 1795.34,553.168 1811.5,549.5 Z"/></g>
<g><path style="opacity:0.98" fill="#044f33" d="M 2631.5,780.5 C 2644.42,730.067 2657.76,679.733 2671.5,629.5C 2663.55,625.679 2655.22,622.513 2646.5,620C 2645.57,619.612 2644.91,618.945 2644.5,618C 2647.59,605.151 2650.75,592.317 2654,579.5C 2670.63,579.158 2687.13,580.992 2703.5,585C 2715.68,587.711 2727.68,591.044 2739.5,595C 2740.06,595.725 2740.39,596.558 2740.5,597.5C 2722.34,658.474 2704.34,719.474 2686.5,780.5C 2668.18,781.79 2649.85,781.79 2631.5,780.5 Z"/></g>
<g><path style="opacity:0.976" fill="#044f33" d="M 1579.5,586.5 C 1600.74,587.742 1611.41,599.076 1611.5,620.5C 1635.33,617.645 1647.99,628.312 1649.5,652.5C 1647.94,674.563 1636.27,683.729 1614.5,680C 1610.07,678.371 1606.24,675.871 1603,672.5C 1597.85,692.492 1585.35,699.659 1565.5,694C 1546.59,682.588 1541.75,666.755 1551,646.5C 1554.24,641.296 1558.74,637.629 1564.5,635.5C 1553.51,621 1553.84,606.833 1565.5,593C 1569.89,589.967 1574.56,587.8 1579.5,586.5 Z"/></g>
<g><path style="opacity:0.983" fill="#044f33" d="M 2178.5,603.5 C 2223.74,598.592 2251.24,618.259 2261,662.5C 2262.63,672.097 2263.46,681.763 2263.5,691.5C 2262.35,724.198 2260.69,756.865 2258.5,789.5C 2235.55,788.096 2212.55,787.263 2189.5,787C 2181.27,786.152 2173.44,783.986 2166,780.5C 2165.69,801.714 2160.69,821.714 2151,840.5C 2134.63,865.275 2111.46,877.942 2081.5,878.5C 2081.5,860.5 2081.5,842.5 2081.5,824.5C 2099.52,824.58 2110.69,815.914 2115,798.5C 2115.99,792.713 2116.49,786.88 2116.5,781C 2114.73,748.517 2113.9,716.017 2114,683.5C 2114.53,655.834 2125.37,633.334 2146.5,616C 2156.47,609.737 2167.14,605.571 2178.5,603.5 Z M 2187.5,654.5 C 2198.35,654.677 2205.18,660.01 2208,670.5C 2208.79,673.471 2209.46,676.471 2210,679.5C 2210.5,698.164 2210.67,716.83 2210.5,735.5C 2199.94,736.553 2189.94,734.72 2180.5,730C 2174.87,725.91 2171.37,720.41 2170,713.5C 2167.19,701.229 2166.86,688.896 2169,676.5C 2171.25,665.563 2177.41,658.229 2187.5,654.5 Z"/></g>
<g><path style="opacity:0.98" fill="#044f33" d="M 2631.5,780.5 C 2647.95,795.388 2667.28,804.388 2689.5,807.5C 2701.36,807.139 2709.53,801.472 2714,790.5C 2733.6,729.192 2753.1,667.859 2772.5,606.5C 2773.17,606.167 2773.83,605.833 2774.5,605.5C 2792.85,610.784 2810.85,616.95 2828.5,624C 2807.01,685.15 2785.51,746.317 2764,807.5C 2742.78,855.685 2706.62,872.519 2655.5,858C 2638.98,852.904 2623.31,845.904 2608.5,837C 2607.45,835.612 2607.28,834.112 2608,832.5C 2614.33,814.833 2620.67,797.167 2627,779.5C 2628.71,778.419 2630.21,778.752 2631.5,780.5 Z"/></g>
<g><path style="opacity:0.979" fill="#044f33" d="M 2866.5,643.5 C 2894.55,648.682 2921.55,657.182 2947.5,669C 2949.18,669.347 2950.18,670.347 2950.5,672C 2915.38,755.365 2879.88,838.531 2844,921.5C 2828.43,914.962 2812.93,908.296 2797.5,901.5C 2824.41,832.944 2851.41,764.444 2878.5,696C 2870.32,691.743 2861.99,687.743 2853.5,684C 2852.94,683.275 2852.61,682.442 2852.5,681.5C 2857.18,668.813 2861.85,656.146 2866.5,643.5 Z"/></g>
<g><path style="opacity:0.983" fill="#044f33" d="M 3052.5,806.5 C 3084.77,826.973 3105.27,855.973 3114,893.5C 3119.46,928.353 3113.3,961.02 3095.5,991.5C 3109.42,1000.38 3123.25,1009.38 3137,1018.5C 3146.45,999.712 3160.95,986.545 3180.5,979C 3209.07,973.634 3232.23,982.467 3250,1005.5C 3258.95,1019.48 3260.95,1034.48 3256,1050.5C 3251.33,1064.17 3244.83,1076.84 3236.5,1088.5C 3239.16,1090.99 3242,1093.33 3245,1095.5C 3256.25,1081 3264.92,1065 3271,1047.5C 3276.61,1025.67 3271.61,1006.67 3256,990.5C 3243.28,979.216 3229.11,970.049 3213.5,963C 3200.61,957.869 3187.61,953.036 3174.5,948.5C 3184.45,933.399 3195.28,919.066 3207,905.5C 3247.36,916.998 3281.36,938.331 3309,969.5C 3329.76,997.722 3335.09,1028.72 3325,1062.5C 3316.75,1087.18 3304.25,1109.35 3287.5,1129C 3302.98,1142.57 3318.65,1155.9 3334.5,1169C 3343.96,1175.15 3353.79,1180.65 3364,1185.5C 3365.87,1160.15 3360.71,1136.32 3348.5,1114C 3352.79,1108.71 3357.45,1103.71 3362.5,1099C 3369.17,1093 3375.83,1087 3382.5,1081C 3414.86,1081.75 3444.2,1091.42 3470.5,1110C 3489.34,1124.51 3501.51,1143.34 3507,1166.5C 3509.43,1206.8 3491.27,1232.63 3452.5,1244C 3443.93,1245.93 3435.27,1247.1 3426.5,1247.5C 3428.32,1254.8 3431.48,1261.47 3436,1267.5C 3444.95,1276.57 3453.78,1285.74 3462.5,1295C 3469.57,1298.11 3476.57,1297.78 3483.5,1294C 3493.07,1287.76 3502.07,1280.76 3510.5,1273C 3559.1,1240.28 3600.93,1247.44 3636,1294.5C 3655.44,1328.53 3652.11,1360.2 3626,1389.5C 3620.8,1395.03 3615.3,1400.2 3609.5,1405C 3583.99,1423.85 3558.49,1442.68 3533,1461.5C 3513.86,1437.89 3495.19,1413.89 3477,1389.5C 3469.25,1375.17 3465.58,1359.83 3466,1343.5C 3458.15,1346.19 3450.32,1346.03 3442.5,1343C 3437,1340.75 3432,1337.75 3427.5,1334C 3415.97,1322.8 3404.8,1311.3 3394,1299.5C 3379.85,1282.03 3370.68,1262.2 3366.5,1240C 3339.06,1232.95 3314.4,1220.62 3292.5,1203C 3187.96,1110.44 3073.13,1032.61 2948,969.5C 2947.33,968.5 2947.33,967.5 2948,966.5C 2955.09,951.322 2962.92,936.655 2971.5,922.5C 2997.82,935.991 3023.82,949.991 3049.5,964.5C 3066.5,929.633 3063,896.966 3039,866.5C 3034.53,861.032 3029.7,855.865 3024.5,851C 3034.06,836.282 3043.39,821.449 3052.5,806.5 Z M 3194.5,1028.5 C 3200.6,1028.1 3204.27,1030.93 3205.5,1037C 3204.04,1045.09 3200.37,1051.92 3194.5,1057.5C 3183.03,1051.93 3180.86,1043.93 3188,1033.5C 3189.97,1031.45 3192.13,1029.78 3194.5,1028.5 Z M 3415.5,1141.5 C 3427.58,1144.43 3437.41,1150.76 3445,1160.5C 3452.09,1174.14 3448.93,1184.64 3435.5,1192C 3430.07,1193.9 3424.57,1195.4 3419,1196.5C 3419.59,1182.17 3419.25,1167.84 3418,1153.5C 3417.23,1149.47 3416.39,1145.47 3415.5,1141.5 Z M 3569.5,1309.5 C 3586.57,1311.33 3593.74,1320.66 3591,1337.5C 3587.02,1345.49 3581.52,1352.32 3574.5,1358C 3562.91,1367.05 3551.41,1376.21 3540,1385.5C 3530.73,1376.9 3524.9,1366.4 3522.5,1354C 3523.56,1346.72 3526.39,1340.22 3531,1334.5C 3538.78,1324.71 3548.28,1317.21 3559.5,1312C 3562.99,1311.26 3566.32,1310.43 3569.5,1309.5 Z"/></g>
<g><path style="opacity:0.981" fill="#044f33" d="M 1054.5,1218.5 C 1054.5,1217.83 1054.17,1217.5 1053.5,1217.5C 1053.26,1215.6 1052.26,1214.26 1050.5,1213.5C 1050.5,1212.83 1050.17,1212.5 1049.5,1212.5C 1049.5,1211.83 1049.17,1211.5 1048.5,1211.5C 1048.5,1210.83 1048.17,1210.5 1047.5,1210.5C 1047.5,1209.83 1047.17,1209.5 1046.5,1209.5C 1046.5,1208.83 1046.17,1208.5 1045.5,1208.5C 1044.92,1206.25 1043.59,1204.58 1041.5,1203.5C 1041.5,1202.83 1041.17,1202.5 1040.5,1202.5C 1040.5,1201.83 1040.17,1201.5 1039.5,1201.5C 1039.5,1200.83 1039.17,1200.5 1038.5,1200.5C 1038.5,1199.83 1038.17,1199.5 1037.5,1199.5C 1037.5,1198.83 1037.17,1198.5 1036.5,1198.5C 1035.92,1196.25 1034.59,1194.58 1032.5,1193.5C 1032.5,1192.83 1032.17,1192.5 1031.5,1192.5C 1031.5,1191.83 1031.17,1191.5 1030.5,1191.5C 1030.5,1190.83 1030.17,1190.5 1029.5,1190.5C 1029.5,1189.83 1029.17,1189.5 1028.5,1189.5C 1028.5,1188.83 1028.17,1188.5 1027.5,1188.5C 1026.92,1186.25 1025.59,1184.58 1023.5,1183.5C 1023.5,1182.83 1023.17,1182.5 1022.5,1182.5C 1022.5,1181.83 1022.17,1181.5 1021.5,1181.5C 1021.5,1180.83 1021.17,1180.5 1020.5,1180.5C 1020.41,1179.5 1020.75,1178.67 1021.5,1178C 1032.34,1168.66 1043.01,1159.16 1053.5,1149.5C 1027,1118.5 1000.5,1087.5 974,1056.5C 973.018,1055.24 972.685,1053.91 973,1052.5C 987.041,1040.12 1001.37,1028.12 1016,1016.5C 1042.91,1049.32 1069.57,1082.32 1096,1115.5C 1111.56,1102.64 1127.39,1090.14 1143.5,1078C 1100.39,1019.22 1056.89,960.718 1013,902.5C 1012.33,901.833 1012.33,901.167 1013,900.5C 1029.33,888.833 1045.67,877.167 1062,865.5C 1087.67,902.5 1113.33,939.5 1139,976.5C 1140.1,951.536 1147.77,928.869 1162,908.5C 1180.93,886.524 1204.76,877.357 1233.5,881C 1249.27,885.426 1262.43,893.926 1273,906.5C 1278.72,913.891 1284.06,921.557 1289,929.5C 1303.67,954.833 1318.33,980.167 1333,1005.5C 1334.63,1008.06 1335.63,1010.72 1336,1013.5C 1259.7,1057.48 1187.54,1107.31 1119.5,1163C 1097.65,1181.36 1075.98,1199.86 1054.5,1218.5 Z M 1212.5,936.5 C 1220.58,937.795 1227.08,941.795 1232,948.5C 1242.92,963.993 1253.08,979.993 1262.5,996.5C 1238,1012.25 1213.66,1028.25 1189.5,1044.5C 1182.27,1020.52 1180.77,996.188 1185,971.5C 1187.52,959.946 1193.02,950.113 1201.5,942C 1204.99,939.588 1208.66,937.755 1212.5,936.5 Z"/></g>
<g><path style="opacity:0.945" fill="#7f9b3d" d="M 2282.5,924.5 C 2298.21,921.78 2312.37,925.113 2325,934.5C 2330.34,945.388 2327.84,953.888 2317.5,960C 2305.81,967.848 2293.14,973.514 2279.5,977C 2273.8,977.83 2268.14,977.663 2262.5,976.5C 2273.37,969.801 2284.37,963.301 2295.5,957C 2296.71,955.887 2296.71,954.72 2295.5,953.5C 2289.84,950.767 2283.84,949.433 2277.5,949.5C 2268.45,950.245 2259.45,951.412 2250.5,953C 2245.5,953.667 2240.5,953.667 2235.5,953C 2248.4,938.886 2264.07,929.386 2282.5,924.5 Z"/></g>
<g><path style="opacity:0.975" fill="#7f9b3d" d="M 2126.5,927.5 C 2129.97,927.576 2133.31,928.242 2136.5,929.5C 2136.62,933.31 2135.29,936.477 2132.5,939C 2127.66,941.921 2122.66,944.588 2117.5,947C 2035.28,977.111 1953.28,1007.78 1871.5,1039C 1849.5,1048.33 1827.5,1057.67 1805.5,1067C 1801.56,1069.43 1799.56,1072.93 1799.5,1077.5C 1804.62,1094.35 1811.95,1110.18 1821.5,1125C 1823.37,1125.98 1825.37,1126.48 1827.5,1126.5C 1899.52,1104.44 1971.52,1082.27 2043.5,1060C 2109.99,1040.21 2177.32,1023.88 2245.5,1011C 2263.59,1007.37 2281.59,1007.71 2299.5,1012C 2332.7,1023.56 2345.87,1046.72 2339,1081.5C 2333.02,1104.13 2322.36,1124.13 2307,1141.5C 2249.44,1199.06 2191.28,1255.89 2132.5,1312C 2131.83,1312.67 2131.17,1312.67 2130.5,1312C 2139.98,1289.87 2151.15,1268.7 2164,1248.5C 2177.72,1230.44 2193.22,1213.94 2210.5,1199C 2237.83,1174.67 2265.17,1150.33 2292.5,1126C 2299.79,1119.72 2305.96,1112.55 2311,1104.5C 2312.27,1097.71 2310.61,1091.71 2306,1086.5C 2292.97,1072.41 2276.81,1064.91 2257.5,1064C 2241.44,1063.11 2225.44,1063.77 2209.5,1066C 2116.38,1084.45 2025.05,1109.45 1935.5,1141C 1860.81,1167.35 1787.47,1197.01 1715.5,1230C 1702.92,1235.93 1691.42,1243.43 1681,1252.5C 1679.32,1257.02 1680.48,1260.85 1684.5,1264C 1730.33,1290.08 1776,1316.41 1821.5,1343C 1859.17,1366.5 1896.51,1390.5 1933.5,1415C 1938.75,1416.51 1944.08,1416.84 1949.5,1416C 1970.56,1408.87 1991.56,1401.53 2012.5,1394C 2018.14,1392.54 2023.8,1391.21 2029.5,1390C 2033.57,1388.1 2035.91,1384.93 2036.5,1380.5C 2024.14,1314.18 2012.81,1247.68 2002.5,1181C 2003.78,1162.5 2006.94,1144.34 2012,1126.5C 2026.73,1149.57 2041.06,1172.9 2055,1196.5C 2060.99,1208.15 2066.16,1220.15 2070.5,1232.5C 2069.73,1234.27 2068.4,1235.27 2066.5,1235.5C 2059.77,1231.55 2052.6,1228.55 2045,1226.5C 2040.86,1231.4 2039.53,1237.07 2041,1243.5C 2043.69,1274.31 2050.02,1304.31 2060,1333.5C 2065.26,1346.19 2073.1,1357.02 2083.5,1366C 2100.33,1376.92 2117.33,1387.58 2134.5,1398C 2152.68,1414.27 2156.51,1433.44 2146,1455.5C 2141.86,1459.19 2137.03,1460.36 2131.5,1459C 2107.09,1447.75 2081.42,1442.58 2054.5,1443.5C 2035.47,1442.78 2017.13,1445.95 1999.5,1453C 1998.71,1454.09 1998.04,1455.25 1997.5,1456.5C 1998.97,1459.14 2000.64,1461.64 2002.5,1464C 2077.61,1518.44 2153.28,1572.11 2229.5,1625C 2234.9,1627.22 2240.4,1629.06 2246,1630.5C 2248.95,1621.41 2250.11,1612.08 2249.5,1602.5C 2245.97,1500.01 2242.64,1397.51 2239.5,1295C 2238.46,1277.17 2241.29,1260 2248,1243.5C 2250.68,1237.47 2254.35,1232.14 2259,1227.5C 2270.33,1255.5 2281.67,1283.5 2293,1311.5C 2300.44,1331.33 2305.94,1351.66 2309.5,1372.5C 2303.98,1371.07 2298.98,1368.57 2294.5,1365C 2288.35,1357.88 2281.85,1351.05 2275,1344.5C 2278.97,1441.52 2283.63,1538.52 2289,1635.5C 2287.57,1656.8 2295.73,1672.97 2313.5,1684C 2352.03,1706.93 2390.7,1707.26 2429.5,1685C 2439.31,1677.37 2443.31,1667.37 2441.5,1655C 2440.35,1623.48 2438.85,1591.98 2437,1560.5C 2423.89,1409.2 2411.23,1257.87 2399,1106.5C 2396.21,1075.56 2394.38,1044.56 2393.5,1013.5C 2392.32,996.897 2396.15,981.564 2405,967.5C 2433.05,1008.93 2453.55,1053.93 2466.5,1102.5C 2465.15,1105.69 2462.82,1106.86 2459.5,1106C 2449,1094.17 2438.5,1082.33 2428,1070.5C 2427.83,1072.5 2427.67,1074.5 2427.5,1076.5C 2438.96,1202.78 2449.8,1329.11 2460,1455.5C 2464.84,1515.41 2467.17,1575.41 2467,1635.5C 2465.61,1658.76 2461.28,1681.43 2454,1703.5C 2436.95,1737.51 2409.28,1754.85 2371,1755.5C 2364.47,1755.43 2357.97,1754.93 2351.5,1754C 2332.14,1750.56 2312.8,1747.06 2293.5,1743.5C 2293.17,1744.5 2292.83,1745.5 2292.5,1746.5C 2301.83,1816.9 2304.99,1887.57 2302,1958.5C 2299.52,2001.03 2292.19,2042.7 2280,2083.5C 2278.25,2085.25 2276.08,2085.92 2273.5,2085.5C 2273.05,2081.84 2272.55,2078.17 2272,2074.5C 2271.64,1953.91 2266.31,1833.58 2256,1713.5C 2255.12,1710.9 2253.62,1708.73 2251.5,1707C 2172.17,1646.33 2092.83,1585.67 2013.5,1525C 2010.28,1522.26 2006.61,1520.93 2002.5,1521C 2013.21,1541.58 2024.04,1562.08 2035,1582.5C 2053.7,1625 2054.04,1667.66 2036,1710.5C 2026.5,1726.67 2013.67,1739.5 1997.5,1749C 1987.52,1754.49 1977.19,1759.16 1966.5,1763C 1937.24,1772.86 1907.91,1782.53 1878.5,1792C 1842.27,1806.61 1807.94,1824.61 1775.5,1846C 1749.12,1869.92 1734.29,1899.76 1731,1935.5C 1714.88,2050.69 1764.71,2111.86 1880.5,2119C 1927.78,2120.41 1973.45,2112.41 2017.5,2095C 2071.5,2075.84 2121.16,2049.18 2166.5,2015C 2174.24,2007.38 2182.07,1999.88 2190,1992.5C 2196.6,1984.17 2198.6,1974.84 2196,1964.5C 2179.67,1916.17 2163.33,1867.83 2147,1819.5C 2138.73,1791.98 2138.4,1764.31 2146,1736.5C 2161,1753.5 2176,1770.5 2191,1787.5C 2199.07,1797.31 2206.4,1807.64 2213,1818.5C 2213.53,1822.37 2211.69,1824.04 2207.5,1823.5C 2199.85,1822.54 2192.19,1821.87 2184.5,1821.5C 2185.57,1829.24 2187.07,1836.91 2189,1844.5C 2197.78,1871.94 2205.78,1899.61 2213,1927.5C 2223.04,1968.99 2214.38,2005.99 2187,2038.5C 2169.56,2055.6 2153.22,2073.6 2138,2092.5C 2115.06,2130.06 2109.4,2170.06 2121,2212.5C 2132.17,2234.16 2149.34,2241 2172.5,2233C 2186.55,2226.28 2199.55,2217.94 2211.5,2208C 2224.94,2196.56 2237.77,2184.4 2250,2171.5C 2280.73,2136.43 2312.57,2102.26 2345.5,2069C 2367.82,2050.16 2392.48,2034.83 2419.5,2023C 2451.95,2008.52 2484.29,1993.85 2516.5,1979C 2522.2,1973.77 2525.37,1967.27 2526,1959.5C 2527.59,1935.47 2529.59,1911.47 2532,1887.5C 2534.46,1855.74 2547.63,1829.57 2571.5,1809C 2578.57,1802.46 2586.91,1798.63 2596.5,1797.5C 2604.33,1797.66 2610.83,1800.66 2616,1806.5C 2634.36,1831.9 2642.36,1860.24 2640,1891.5C 2633.07,1927.69 2617.73,1959.69 2594,1987.5C 2586.8,1994.37 2579.3,2000.87 2571.5,2007C 2580.29,2016.13 2589.96,2024.13 2600.5,2031C 2612.88,2038.29 2625.55,2038.96 2638.5,2033C 2656.53,2025.49 2674.2,2017.15 2691.5,2008C 2702.82,2000.18 2707.82,1989.35 2706.5,1975.5C 2704.87,1923.49 2703.04,1871.49 2701,1819.5C 2688.73,1621.14 2676.06,1422.81 2663,1224.5C 2661.55,1197.91 2663.55,1171.58 2669,1145.5C 2670.61,1142.23 2672.61,1139.23 2675,1136.5C 2699.11,1176.48 2717.61,1218.98 2730.5,1264C 2728.98,1265.85 2727.14,1267.35 2725,1268.5C 2715,1258.5 2705,1248.5 2695,1238.5C 2703.2,1379.64 2713.53,1520.64 2726,1661.5C 2728.67,1761.49 2729,1861.49 2727,1961.5C 2722.94,2011.48 2700.44,2050.65 2659.5,2079C 2641.19,2089.49 2621.52,2093.83 2600.5,2092C 2593.01,2090.25 2586.34,2086.92 2580.5,2082C 2576.67,2077.5 2572.83,2073 2569,2068.5C 2561.33,2056.49 2554.16,2044.16 2547.5,2031.5C 2544.5,2028 2540.67,2026.33 2536,2026.5C 2529.59,2026.98 2523.42,2028.48 2517.5,2031C 2466.98,2048.76 2419.31,2072.1 2374.5,2101C 2354.2,2114.95 2335.37,2130.79 2318,2148.5C 2293.63,2174.94 2269.96,2201.94 2247,2229.5C 2233.42,2244.52 2217.92,2257.02 2200.5,2267C 2170.38,2277.52 2144.88,2270.68 2124,2246.5C 2105.43,2220.89 2097.76,2192.22 2101,2160.5C 2102.4,2148.09 2104.23,2135.76 2106.5,2123.5C 2106.07,2119.17 2105.74,2114.84 2105.5,2110.5C 2100.78,2111.01 2096.12,2111.84 2091.5,2113C 2042.11,2138.69 1990.11,2157.02 1935.5,2168C 1898.25,2174.41 1860.92,2175.07 1823.5,2170C 1779.84,2161.28 1746.34,2138.11 1723,2100.5C 1706.15,2066.72 1700.15,2031.05 1705,1993.5C 1708.46,1966.22 1713.46,1939.22 1720,1912.5C 1720.82,1909.45 1720.65,1906.45 1719.5,1903.5C 1713.83,1907.33 1708.17,1911.17 1702.5,1915C 1689.38,1926.72 1675.72,1937.72 1661.5,1948C 1644.64,1959.88 1625.98,1964.55 1605.5,1962C 1582.83,1956.33 1567.33,1942.5 1559,1920.5C 1549.35,1893.62 1546.02,1865.95 1549,1837.5C 1550.51,1822.29 1553.17,1807.29 1557,1792.5C 1563.2,1770.76 1570.54,1749.43 1579,1728.5C 1581.63,1719.39 1580.63,1710.73 1576,1702.5C 1549.7,1672.32 1539.7,1637.32 1546,1597.5C 1553.24,1559.44 1566.24,1523.44 1585,1489.5C 1598.6,1465.57 1612.6,1441.91 1627,1418.5C 1629.79,1415.65 1632.95,1413.82 1636.5,1413C 1637.91,1413.37 1638.91,1414.2 1639.5,1415.5C 1637.7,1420.07 1636.2,1424.74 1635,1429.5C 1615.12,1469.92 1595.79,1510.59 1577,1551.5C 1569.26,1567.39 1563.93,1584.06 1561,1601.5C 1558.15,1659.96 1583.65,1677.46 1637.5,1654C 1650.02,1647.58 1661.69,1639.91 1672.5,1631C 1699.54,1609.14 1726.2,1586.81 1752.5,1564C 1790.17,1529 1827.83,1494 1865.5,1459C 1852.79,1447.96 1839.79,1437.29 1826.5,1427C 1776.94,1392.11 1727.94,1356.44 1679.5,1320C 1667.21,1309.72 1658.05,1297.22 1652,1282.5C 1644.09,1254.03 1650.59,1229.53 1671.5,1209C 1684.34,1201.08 1697.34,1193.41 1710.5,1186C 1742.83,1169.17 1775.17,1152.33 1807.5,1135.5C 1799.05,1126.89 1791.55,1117.56 1785,1107.5C 1774.87,1072.93 1786.37,1048.77 1819.5,1035C 1919.2,991.49 2021.53,955.657 2126.5,927.5 Z M 2615.5,1384.5 C 2620.02,1384.35 2623.19,1386.35 2625,1390.5C 2629.9,1406.79 2625.9,1408.79 2613,1396.5C 2610.52,1391.67 2611.36,1387.67 2615.5,1384.5 Z M 1905.5,1490.5 C 1908.89,1490.06 1911.89,1490.9 1914.5,1493C 1962.76,1538.25 2002.26,1590.08 2033,1648.5C 2040.66,1665.85 2036.16,1679.02 2019.5,1688C 2001.24,1696.64 1982.57,1704.31 1963.5,1711C 1931.7,1720.93 1900.03,1731.27 1868.5,1742C 1828.2,1757.97 1791.2,1779.31 1757.5,1806C 1728.1,1833.84 1697.77,1860.51 1666.5,1886C 1646.45,1902.64 1623.45,1912.8 1597.5,1916.5C 1586.57,1916.12 1578.07,1911.45 1572,1902.5C 1565.31,1889.5 1562.48,1875.66 1563.5,1861C 1564.31,1814.61 1575.81,1771.11 1598,1730.5C 1600.87,1727.3 1604.04,1724.46 1607.5,1722C 1631.89,1714.97 1654.22,1703.97 1674.5,1689C 1726.83,1642.67 1779.17,1596.33 1831.5,1550C 1856.07,1529.92 1880.73,1510.09 1905.5,1490.5 Z M 2111.5,1659.5 C 2119.4,1658.59 2123.9,1661.92 2125,1669.5C 2118.26,1674.11 2112.76,1672.94 2108.5,1666C 2109.03,1663.56 2110.03,1661.39 2111.5,1659.5 Z M 2578.5,1855.5 C 2591.79,1857.28 2601.29,1864.28 2607,1876.5C 2615.58,1892.82 2616.58,1909.49 2610,1926.5C 2598.72,1938.12 2586.55,1948.62 2573.5,1958C 2565.08,1963.41 2559.24,1961.24 2556,1951.5C 2551.95,1934.25 2548.28,1916.92 2545,1899.5C 2542.27,1885.47 2546.43,1873.97 2557.5,1865C 2564.1,1860.7 2571.1,1857.53 2578.5,1855.5 Z"/></g>
<g><path style="opacity:0.968" fill="#7f9b3d" d="M 2536.5,1031.5 C 2538.89,1031.91 2541.22,1032.58 2543.5,1033.5C 2565.18,1073.52 2581.84,1115.52 2593.5,1159.5C 2593.17,1159.83 2592.83,1160.17 2592.5,1160.5C 2582.24,1153.74 2572.41,1146.41 2563,1138.5C 2562.08,1163.56 2562.92,1188.56 2565.5,1213.5C 2570.52,1282.84 2575.69,1352.18 2581,1421.5C 2581.58,1429.96 2582.91,1438.29 2585,1446.5C 2586.06,1450.58 2588.56,1452.75 2592.5,1453C 2599.96,1448.12 2606.29,1442.12 2611.5,1435C 2607.65,1424.81 2603.15,1414.98 2598,1405.5C 2595.21,1385.9 2602.71,1372.07 2620.5,1364C 2627.06,1362.12 2632.22,1363.96 2636,1369.5C 2636.67,1392.83 2636.67,1416.17 2636,1439.5C 2635.04,1440.58 2634.21,1441.75 2633.5,1443C 2608,1457.52 2593.17,1479.35 2589,1508.5C 2589.29,1552.31 2584.96,1595.65 2576,1638.5C 2574,1647.34 2571.5,1656.01 2568.5,1664.5C 2567.07,1664.58 2565.74,1664.25 2564.5,1663.5C 2563.16,1659.62 2562.33,1655.62 2562,1651.5C 2559.22,1608.51 2556.56,1565.51 2554,1522.5C 2553.14,1513.82 2548.97,1511.65 2541.5,1516C 2524.83,1524.25 2508,1532.09 2491,1539.5C 2489.98,1538.65 2489.14,1537.65 2488.5,1536.5C 2492.41,1531.88 2496.74,1527.71 2501.5,1524C 2515.5,1514 2529.5,1504 2543.5,1494C 2548,1490.16 2550.84,1485.33 2552,1479.5C 2552.67,1472.5 2552.67,1465.5 2552,1458.5C 2544.25,1341.86 2536.92,1225.19 2530,1108.5C 2529.57,1090.49 2529.91,1072.49 2531,1054.5C 2532.05,1046.64 2533.88,1038.97 2536.5,1031.5 Z M 2615.5,1384.5 C 2611.36,1387.67 2610.52,1391.67 2613,1396.5C 2625.9,1408.79 2629.9,1406.79 2625,1390.5C 2623.19,1386.35 2620.02,1384.35 2615.5,1384.5 Z"/></g>
<g><path style="opacity:0.917" fill="#7f9b3d" d="M 1679.5,1087.5 C 1681.66,1087.12 1683.33,1087.78 1684.5,1089.5C 1676.27,1110.34 1670.61,1131.84 1667.5,1154C 1667.27,1161.08 1670.6,1164.92 1677.5,1165.5C 1680.45,1164.7 1683.45,1164.36 1686.5,1164.5C 1686.11,1174.71 1681.44,1182.21 1672.5,1187C 1664.87,1188.41 1660.04,1185.24 1658,1177.5C 1655.17,1155.93 1657.51,1134.93 1665,1114.5C 1669.35,1105.13 1674.18,1096.13 1679.5,1087.5 Z"/></g>
<g><path style="opacity:0.931" fill="#7f9b3d" d="M 2170.5,1094.5 C 2173.65,1094.79 2174.81,1096.46 2174,1099.5C 2163.34,1122.64 2153.18,1145.97 2143.5,1169.5C 2144.73,1174.47 2145.9,1179.47 2147,1184.5C 2153.85,1183.78 2160.52,1181.78 2167,1178.5C 2166.58,1191.84 2161.42,1203 2151.5,1212C 2144.12,1214.32 2137.96,1212.49 2133,1206.5C 2124.83,1194.95 2123.49,1182.61 2129,1169.5C 2136.48,1145.88 2147.15,1123.88 2161,1103.5C 2164.06,1100.27 2167.23,1097.27 2170.5,1094.5 Z"/></g>
<g><path style="opacity:0.98" fill="#044f33" d="M 1020.5,1180.5 C 1021.17,1180.5 1021.5,1180.83 1021.5,1181.5C 1022.17,1181.5 1022.5,1181.83 1022.5,1182.5C 1023.17,1182.5 1023.5,1182.83 1023.5,1183.5C 1024.08,1185.75 1025.41,1187.42 1027.5,1188.5C 1028.17,1188.5 1028.5,1188.83 1028.5,1189.5C 1029.17,1189.5 1029.5,1189.83 1029.5,1190.5C 1030.17,1190.5 1030.5,1190.83 1030.5,1191.5C 1031.17,1191.5 1031.5,1191.83 1031.5,1192.5C 1032.17,1192.5 1032.5,1192.83 1032.5,1193.5C 1033.08,1195.75 1034.41,1197.42 1036.5,1198.5C 1037.17,1198.5 1037.5,1198.83 1037.5,1199.5C 1038.17,1199.5 1038.5,1199.83 1038.5,1200.5C 1039.17,1200.5 1039.5,1200.83 1039.5,1201.5C 1040.17,1201.5 1040.5,1201.83 1040.5,1202.5C 1041.17,1202.5 1041.5,1202.83 1041.5,1203.5C 1042.08,1205.75 1043.41,1207.42 1045.5,1208.5C 1046.17,1208.5 1046.5,1208.83 1046.5,1209.5C 1047.17,1209.5 1047.5,1209.83 1047.5,1210.5C 1048.17,1210.5 1048.5,1210.83 1048.5,1211.5C 1049.17,1211.5 1049.5,1211.83 1049.5,1212.5C 1050.17,1212.5 1050.5,1212.83 1050.5,1213.5C 1050.74,1215.4 1051.74,1216.74 1053.5,1217.5C 1054.17,1217.5 1054.5,1217.83 1054.5,1218.5C 1034.55,1237.45 1014.55,1256.45 994.5,1275.5C 969.679,1249.85 944.346,1224.68 918.5,1200C 906.896,1191.1 895.562,1191.44 884.5,1201C 881.794,1203.37 879.461,1206.04 877.5,1209C 908.679,1239.35 939.679,1269.85 970.5,1300.5C 944.484,1328.05 918.818,1355.88 893.5,1384C 838.265,1432.93 783.265,1432.6 728.5,1383C 719.316,1373.32 710.316,1363.48 701.5,1353.5C 711.42,1333.32 722.087,1313.65 733.5,1294.5C 743.714,1312.88 756.714,1329.05 772.5,1343C 782.417,1351.56 793.75,1357.56 806.5,1361C 823.61,1362.96 838.943,1358.63 852.5,1348C 868.404,1334.85 882.737,1320.18 895.5,1304C 867.833,1279 840.167,1254 812.5,1229C 809.449,1226.29 806.782,1223.29 804.5,1220C 817.753,1194.85 835.086,1172.85 856.5,1154C 884.433,1130.4 913.766,1128.4 944.5,1148C 949.683,1151.76 954.683,1155.76 959.5,1160C 972.368,1173.2 984.868,1186.7 997,1200.5C 1004.43,1193.23 1012.26,1186.56 1020.5,1180.5 Z"/></g>
<g><path style="opacity:0.969" fill="#044f33" d="M 1123.5,1179.5 C 1146.02,1181.68 1158.68,1194.01 1161.5,1216.5C 1161.28,1233.06 1152.94,1241.72 1136.5,1242.5C 1120.51,1241.92 1109.35,1234.25 1103,1219.5C 1095.98,1198.58 1102.82,1185.24 1123.5,1179.5 Z"/></g>
<g><path style="opacity:0.938" fill="#7f9b3d" d="M 2353.5,1187.5 C 2354.5,1187.47 2355.16,1187.97 2355.5,1189C 2351.08,1209.96 2348.91,1231.12 2349,1252.5C 2353.31,1258.58 2359.15,1262.58 2366.5,1264.5C 2366.19,1275.06 2363.35,1285.06 2358,1294.5C 2353.37,1298.32 2348.53,1298.49 2343.5,1295C 2336.74,1289.08 2333.24,1281.58 2333,1272.5C 2330.65,1250.59 2333.99,1229.59 2343,1209.5C 2346.78,1202.27 2350.28,1194.93 2353.5,1187.5 Z"/></g>
<g><path style="opacity:0.93" fill="#7f9b3d" d="M 2483.5,1187.5 C 2484.79,1188.87 2485.45,1190.7 2485.5,1193C 2484.51,1211.17 2483.51,1229.34 2482.5,1247.5C 2482.83,1253.17 2484.33,1258.51 2487,1263.5C 2487.72,1264.06 2488.56,1264.39 2489.5,1264.5C 2493.75,1261.76 2497.58,1258.42 2501,1254.5C 2502.01,1255.34 2503.18,1255.67 2504.5,1255.5C 2504.04,1263.7 2501.87,1271.37 2498,1278.5C 2485.66,1289.36 2476,1287.36 2469,1272.5C 2467.03,1259.5 2467.03,1246.5 2469,1233.5C 2473.14,1217.92 2477.97,1202.59 2483.5,1187.5 Z"/></g>
<g><path style="opacity:0.95" fill="#7f9b3d" d="M 1937.5,1208.5 C 1942.81,1208.97 1946.64,1211.63 1949,1216.5C 1953.31,1224.74 1955.97,1233.41 1957,1242.5C 1954.71,1248.65 1950.55,1250.15 1944.5,1247C 1932.95,1237.02 1926.78,1239.85 1926,1255.5C 1922.67,1279.5 1919.33,1303.5 1916,1327.5C 1914.86,1334.61 1912.36,1341.11 1908.5,1347C 1904.11,1348.06 1900.95,1346.56 1899,1342.5C 1890.17,1322.33 1878,1304.49 1862.5,1289C 1847.09,1289.71 1837.59,1282.54 1834,1267.5C 1832.98,1260.27 1834.15,1253.44 1837.5,1247C 1842.05,1244.23 1846.72,1244.23 1851.5,1247C 1871.46,1262.24 1889.63,1279.4 1906,1298.5C 1911.53,1274.71 1917.53,1251.04 1924,1227.5C 1925.73,1223.05 1927.73,1218.71 1930,1214.5C 1932.13,1211.85 1934.63,1209.85 1937.5,1208.5 Z"/></g>
<g><path style="opacity:0.972" fill="#7f9b3d" d="M 2778.5,1265.5 C 2780.59,1265.56 2782.09,1266.56 2783,1268.5C 2807.66,1308.51 2824.83,1351.35 2834.5,1397C 2832.95,1398.29 2831.28,1398.96 2829.5,1399C 2821,1389.17 2812.5,1379.33 2804,1369.5C 2803.33,1392.83 2803.33,1416.17 2804,1439.5C 2810.49,1552.49 2816.82,1665.49 2823,1778.5C 2826.61,1823.14 2822.95,1867.14 2812,1910.5C 2807.94,1923.96 2802.77,1936.96 2796.5,1949.5C 2795.26,1948.75 2793.93,1948.42 2792.5,1948.5C 2792.06,1877.16 2790.89,1805.82 2789,1734.5C 2784.85,1641.14 2780.18,1547.81 2775,1454.5C 2772.48,1397.52 2770.81,1340.52 2770,1283.5C 2771.18,1278.46 2772.51,1273.46 2774,1268.5C 2775.31,1267.1 2776.81,1266.1 2778.5,1265.5 Z"/></g>
<g><path style="opacity:0.949" fill="#7f9b3d" d="M 1626.5,1307.5 C 1633.26,1305.72 1637.76,1308.06 1640,1314.5C 1641.07,1325.19 1642.4,1335.86 1644,1346.5C 1647.85,1357.03 1652.35,1367.2 1657.5,1377C 1656.78,1381.11 1654.78,1384.45 1651.5,1387C 1638.86,1392.65 1626.86,1399.32 1615.5,1407C 1589.46,1430.51 1561.79,1451.85 1532.5,1471C 1524.33,1475.92 1515.99,1480.59 1507.5,1485C 1498.67,1487.96 1489.67,1490.12 1480.5,1491.5C 1480.3,1489.61 1480.96,1488.11 1482.5,1487C 1522.09,1459.36 1560.43,1430.03 1597.5,1399C 1602.05,1394.45 1606.55,1389.95 1611,1385.5C 1612.42,1382.97 1612.75,1380.3 1612,1377.5C 1607.73,1370.23 1603.06,1363.23 1598,1356.5C 1595.62,1349.85 1596.29,1343.51 1600,1337.5C 1607.23,1325.99 1616.07,1315.99 1626.5,1307.5 Z M 1618.5,1330.5 C 1621.09,1331.25 1622.92,1332.92 1624,1335.5C 1624.67,1338.5 1624.67,1341.5 1624,1344.5C 1622.92,1350.13 1620.58,1350.8 1617,1346.5C 1614.66,1342.44 1613.99,1338.11 1615,1333.5C 1615.98,1332.19 1617.15,1331.19 1618.5,1330.5 Z"/></g>
<g><path style="opacity:0.925" fill="#7f9b3d" d="M 1545.5,1331.5 C 1546.65,1331.79 1547.32,1332.62 1547.5,1334C 1549.13,1343.92 1551.13,1353.76 1553.5,1363.5C 1559.41,1360.63 1565.24,1357.63 1571,1354.5C 1571.65,1357.59 1571.32,1360.59 1570,1363.5C 1564.75,1374.92 1556.25,1382.59 1544.5,1386.5C 1538.58,1385.38 1535.41,1381.71 1535,1375.5C 1532.64,1359.29 1536.14,1344.62 1545.5,1331.5 Z"/></g>
<g><path style="opacity:0.974" fill="#044f33" d="M 947.5,1347.5 C 966.598,1346.8 980.098,1355.13 988,1372.5C 993.597,1390.81 987.43,1402.97 969.5,1409C 964.408,1409.24 959.408,1409.4 954.5,1409.5C 960.471,1424.47 956.805,1436.31 943.5,1445C 919.741,1450.87 903.574,1442.37 895,1419.5C 892.155,1406.69 895.988,1396.52 906.5,1389C 913.868,1385.45 921.368,1384.95 929,1387.5C 928.202,1382.94 927.702,1378.27 927.5,1373.5C 927.939,1359.92 934.606,1351.26 947.5,1347.5 Z"/></g>
<g><path style="opacity:0.931" fill="#7f9b3d" d="M 1721.5,1414.5 C 1722.5,1414.5 1723.5,1414.5 1724.5,1414.5C 1720.34,1431.8 1716.17,1449.14 1712,1466.5C 1709.83,1479.09 1708.83,1491.76 1709,1504.5C 1709.66,1510.2 1712.5,1514.2 1717.5,1516.5C 1724.33,1514.45 1730.66,1511.45 1736.5,1507.5C 1737.46,1521.78 1732.79,1533.95 1722.5,1544C 1716.5,1547.09 1710.83,1546.43 1705.5,1542C 1696.17,1533.34 1690.84,1522.68 1689.5,1510C 1689.77,1505.4 1690.61,1500.9 1692,1496.5C 1699.8,1472.1 1707.8,1447.77 1716,1423.5C 1717.66,1420.35 1719.5,1417.35 1721.5,1414.5 Z"/></g>
<g><path style="opacity:0.932" fill="#7f9b3d" d="M 2208.5,1438.5 C 2209.5,1438.47 2210.16,1438.97 2210.5,1440C 2203.61,1457.35 2197.11,1474.85 2191,1492.5C 2185.77,1506.35 2188.27,1518.51 2198.5,1529C 2202.95,1527.78 2207.29,1525.95 2211.5,1523.5C 2213.83,1538.33 2208.5,1549.5 2195.5,1557C 2191.43,1557.96 2187.59,1557.46 2184,1555.5C 2179.79,1549.28 2176.46,1542.62 2174,1535.5C 2172.76,1505.88 2180.09,1478.55 2196,1453.5C 2199.68,1447.99 2203.85,1442.99 2208.5,1438.5 Z"/></g>
<g><path style="opacity:0.936" fill="#7f9b3d" d="M 2375.5,1486.5 C 2377.97,1486.23 2379.64,1487.23 2380.5,1489.5C 2371.98,1513.92 2365.81,1538.92 2362,1564.5C 2359.63,1583.12 2367.8,1590.28 2386.5,1586C 2390.24,1589.88 2390.4,1594.05 2387,1598.5C 2382.9,1605.5 2377.74,1611.67 2371.5,1617C 2365.41,1617.88 2360.24,1616.04 2356,1611.5C 2348.72,1599.49 2344.55,1586.49 2343.5,1572.5C 2343.94,1565.27 2345.44,1558.27 2348,1551.5C 2357.2,1529.78 2366.36,1508.12 2375.5,1486.5 Z"/></g>
<g><path style="opacity:0.921" fill="#7f9b3d" d="M 2874.5,1512.5 C 2876.71,1512.29 2878.38,1513.12 2879.5,1515C 2873.27,1536.02 2866.44,1556.85 2859,1577.5C 2852.23,1596 2855.57,1612.33 2869,1626.5C 2874.3,1622.2 2879.3,1617.53 2884,1612.5C 2884.79,1616.93 2884.46,1621.26 2883,1625.5C 2880.21,1633.07 2876.88,1640.4 2873,1647.5C 2869.11,1651.19 2864.94,1654.53 2860.5,1657.5C 2855.81,1653.65 2851.65,1649.32 2848,1644.5C 2845.75,1631.59 2845.09,1618.59 2846,1605.5C 2851.36,1577.42 2858.36,1549.75 2867,1522.5C 2869.27,1518.96 2871.77,1515.62 2874.5,1512.5 Z"/></g>
<g><path style="opacity:0.969" fill="#7f9b3d" d="M 1906.5,1605.5 C 1911.29,1604.97 1915.62,1606.14 1919.5,1609C 1928.78,1615.23 1937.62,1622.06 1946,1629.5C 1952.12,1637.1 1953.45,1645.43 1950,1654.5C 1944.21,1666.43 1936.71,1677.1 1927.5,1686.5C 1911.06,1674.53 1894.9,1662.2 1879,1649.5C 1867.39,1663.06 1855.56,1676.4 1843.5,1689.5C 1827.57,1678.73 1812.41,1667.06 1798,1654.5C 1795.81,1649.97 1796.14,1645.64 1799,1641.5C 1804.33,1634.17 1809.67,1626.83 1815,1619.5C 1821.76,1611.59 1829.6,1610.42 1838.5,1616C 1851,1624.42 1863.66,1632.58 1876.5,1640.5C 1883.88,1631.95 1890.71,1622.95 1897,1613.5C 1899.77,1610.22 1902.94,1607.55 1906.5,1605.5 Z"/></g>
<g><path style="opacity:0.94" fill="#7f9b3d" d="M 2120.5,1637.5 C 2123.79,1637.26 2126.79,1638.09 2129.5,1640C 2132.05,1643.59 2134.21,1647.42 2136,1651.5C 2137.45,1662.2 2139.11,1672.86 2141,1683.5C 2143.59,1689.02 2146.92,1694.02 2151,1698.5C 2152.89,1702.85 2152.89,1707.18 2151,1711.5C 2149.68,1713.49 2147.85,1714.65 2145.5,1715C 2141.17,1715.33 2136.83,1715.67 2132.5,1716C 2129.13,1716.52 2126.13,1717.85 2123.5,1720C 2104.62,1745.89 2082.62,1768.89 2057.5,1789C 2027.96,1813.21 1997.29,1835.88 1965.5,1857C 1962.65,1858.61 1959.65,1859.27 1956.5,1859C 1954.99,1858.16 1954.49,1857 1955,1855.5C 1996.18,1818.51 2038.01,1782.34 2080.5,1747C 2088.72,1738.78 2096.89,1730.61 2105,1722.5C 2109.76,1715.89 2111.42,1708.55 2110,1700.5C 2107.16,1692.65 2103.83,1684.98 2100,1677.5C 2095.54,1658.09 2102.37,1644.75 2120.5,1637.5 Z M 2111.5,1659.5 C 2110.03,1661.39 2109.03,1663.56 2108.5,1666C 2112.76,1672.94 2118.26,1674.11 2125,1669.5C 2123.9,1661.92 2119.4,1658.59 2111.5,1659.5 Z"/></g>
<g><path style="opacity:0.92" fill="#7f9b3d" d="M 1518.5,1674.5 C 1532.08,1676.92 1537.58,1684.92 1535,1698.5C 1520.98,1725.37 1505.82,1751.54 1489.5,1777C 1487.98,1778.01 1486.31,1778.51 1484.5,1778.5C 1484.74,1775.35 1485.57,1772.35 1487,1769.5C 1497.46,1749.59 1507.62,1729.59 1517.5,1709.5C 1517.07,1707.23 1515.74,1705.73 1513.5,1705C 1508.65,1704.29 1503.98,1702.95 1499.5,1701C 1498.27,1692.1 1501.27,1684.77 1508.5,1679C 1511.56,1676.63 1514.9,1675.13 1518.5,1674.5 Z"/></g>
<g><path style="opacity:0.967" fill="#7f9b3d" d="M 2549.5,1679.5 C 2550.55,1679.35 2551.55,1679.52 2552.5,1680C 2564,1690.83 2575.5,1701.67 2587,1712.5C 2596.55,1703.65 2606.39,1695.15 2616.5,1687C 2626.94,1680.6 2636.94,1681.27 2646.5,1689C 2654.08,1695.25 2659.25,1703.08 2662,1712.5C 2662.7,1715.93 2662.37,1719.26 2661,1722.5C 2653.42,1733.08 2644.76,1742.75 2635,1751.5C 2619.59,1741.54 2604.42,1731.21 2589.5,1720.5C 2577.5,1733.17 2565.5,1745.83 2553.5,1758.5C 2541.35,1746.18 2529.35,1733.68 2517.5,1721C 2528.79,1707.56 2539.46,1693.72 2549.5,1679.5 Z"/></g>
<g><path style="opacity:0.916" fill="#7f9b3d" d="M 1702.5,1690.5 C 1705.31,1690.4 1707.31,1691.57 1708.5,1694C 1703.71,1711.36 1697.55,1728.19 1690,1744.5C 1688.66,1760.47 1693.66,1774.13 1705,1785.5C 1710.77,1778.98 1716.77,1772.64 1723,1766.5C 1724.49,1767.16 1725.65,1768.16 1726.5,1769.5C 1721.53,1780.78 1716.03,1791.78 1710,1802.5C 1701.67,1812.31 1692.67,1812.98 1683,1804.5C 1682.33,1803.17 1681.67,1801.83 1681,1800.5C 1681.1,1773.93 1683.77,1747.6 1689,1721.5C 1692.96,1710.91 1697.46,1700.58 1702.5,1690.5 Z"/></g>
<g><path style="opacity:0.944" fill="#7f9b3d" d="M 2455.5,1762.5 C 2474.25,1762.29 2492.92,1763.46 2511.5,1766C 2517.79,1766.95 2519.95,1770.45 2518,1776.5C 2504.45,1792.37 2487.28,1802.2 2466.5,1806C 2462.2,1807.09 2457.87,1807.42 2453.5,1807C 2460.17,1802.67 2466.83,1798.33 2473.5,1794C 2479.39,1788.64 2478.72,1784.64 2471.5,1782C 2464.14,1781.27 2456.81,1781.44 2449.5,1782.5C 2444.52,1782.01 2439.69,1781.01 2435,1779.5C 2434.6,1778.13 2434.1,1776.79 2433.5,1775.5C 2440.35,1770.09 2447.68,1765.75 2455.5,1762.5 Z"/></g>
<g><path style="opacity:0.959" fill="#7f9b3d" d="M 2426.5,1835.5 C 2436.29,1833.58 2443.45,1836.91 2448,1845.5C 2447.58,1850.29 2445.08,1853.79 2440.5,1856C 2426.07,1856.81 2412.4,1860.48 2399.5,1867C 2392.88,1871.36 2390.72,1877.2 2393,1884.5C 2394.94,1887.11 2397.44,1888.94 2400.5,1890C 2406.7,1891.97 2413.03,1893.31 2419.5,1894C 2438.48,1895.17 2457.48,1895.84 2476.5,1896C 2484.03,1898.27 2485.53,1902.77 2481,1909.5C 2474.82,1914.9 2467.66,1918.4 2459.5,1920C 2429.5,1929.33 2399.5,1938.67 2369.5,1948C 2365,1949.48 2362.84,1947.98 2363,1943.5C 2369.65,1935.35 2376.48,1927.35 2383.5,1919.5C 2378.67,1912.5 2373.83,1905.5 2369,1898.5C 2367.73,1892.41 2368.73,1886.74 2372,1881.5C 2384.62,1859.37 2402.78,1844.03 2426.5,1835.5 Z"/></g>
<g><path style="opacity:0.942" fill="#7f9b3d" d="M 1922.5,1843.5 C 1925.25,1843.19 1927.91,1843.52 1930.5,1844.5C 1928.08,1848.34 1925.91,1852.34 1924,1856.5C 1909.86,1870.64 1894.03,1882.48 1876.5,1892C 1856.73,1909.7 1845.57,1931.87 1843,1958.5C 1840.07,1974.56 1841.4,1990.23 1847,2005.5C 1849.88,2011.71 1853.55,2017.37 1858,2022.5C 1863.67,2016.17 1869.33,2009.83 1875,2003.5C 1876.09,2019.47 1870.93,2032.97 1859.5,2044C 1853.25,2047.56 1847.25,2047.23 1841.5,2043C 1828.28,2025.88 1824.11,2006.72 1829,1985.5C 1831.83,1963.53 1834.33,1941.53 1836.5,1919.5C 1832.05,1920.19 1827.72,1921.36 1823.5,1923C 1813.47,1928.02 1803.47,1933.02 1793.5,1938C 1787.91,1940.16 1782.24,1940.99 1776.5,1940.5C 1778.71,1936.58 1781.04,1932.75 1783.5,1929C 1802.61,1914.55 1822.28,1900.89 1842.5,1888C 1869.07,1872.89 1895.73,1858.05 1922.5,1843.5 Z"/></g>
<g><path style="opacity:0.936" fill="#7f9b3d" d="M 2096.5,1848.5 C 2097.59,1848.62 2098.25,1849.29 2098.5,1850.5C 2094.42,1869.73 2090.92,1889.06 2088,1908.5C 2085.57,1923.71 2088.74,1937.54 2097.5,1950C 2099.83,1952 2102.17,1952 2104.5,1950C 2109.37,1944.8 2114.53,1939.97 2120,1935.5C 2119.99,1951.55 2114.15,1965.05 2102.5,1976C 2097.5,1979.33 2092.5,1979.33 2087.5,1976C 2074.16,1963.64 2068.49,1948.31 2070.5,1930C 2070.93,1911.43 2074.77,1893.6 2082,1876.5C 2086.6,1866.96 2091.44,1857.62 2096.5,1848.5 Z"/></g>
<g><path style="opacity:0.97" fill="#7f9b3d" d="M 1972.5,1909.5 C 1990.17,1914.36 2004,1924.36 2014,1939.5C 2015.31,1952.57 2012.31,1964.57 2005,1975.5C 2000.12,1981.22 1993.95,1983.05 1986.5,1981C 1974.71,1975.35 1964.21,1967.85 1955,1958.5C 1946.1,1941.99 1948.27,1927.16 1961.5,1914C 1965.16,1912.18 1968.82,1910.68 1972.5,1909.5 Z"/></g>
<g><path style="opacity:0.932" fill="#7f9b3d" d="M 1661.5,1985.5 C 1670.83,1985.33 1675.83,1989.83 1676.5,1999C 1671.79,2025.48 1661.45,2049.48 1645.5,2071C 1643.32,2072.2 1640.99,2072.7 1638.5,2072.5C 1644.8,2055.75 1650.8,2038.92 1656.5,2022C 1655.91,2018.97 1654.57,2016.3 1652.5,2014C 1647.88,2010.9 1642.88,2008.57 1637.5,2007C 1636.98,2006.44 1636.64,2005.77 1636.5,2005C 1641.51,1994.15 1649.84,1987.65 1661.5,1985.5 Z"/></g>
<g><path style="opacity:0.95" fill="#7f9b3d" d="M 2523.5,2115.5 C 2527.46,2115.09 2531.13,2115.92 2534.5,2118C 2548.32,2132.13 2552.32,2148.63 2546.5,2167.5C 2538.3,2161.47 2529.97,2155.64 2521.5,2150C 2516.12,2148.94 2511.96,2150.77 2509,2155.5C 2496.75,2184.92 2486.08,2214.92 2477,2245.5C 2468.1,2227.35 2458.43,2209.69 2448,2192.5C 2444.47,2188.63 2440.63,2185.13 2436.5,2182C 2429.37,2178.6 2422.37,2174.94 2415.5,2171C 2405.74,2161.39 2402.24,2149.89 2405,2136.5C 2407.63,2131.27 2411.8,2129.44 2417.5,2131C 2441.87,2146.03 2460.7,2166.2 2474,2191.5C 2476,2193.5 2478,2195.5 2480,2197.5C 2482.77,2195.4 2484.77,2192.73 2486,2189.5C 2489.86,2165.12 2499.19,2143.12 2514,2123.5C 2516.77,2120.22 2519.94,2117.55 2523.5,2115.5 Z"/></g>
<g><path style="opacity:0.769" fill="#0c8442" d="M 3227.5,2163.5 C 3227.5,2159.17 3227.5,2154.83 3227.5,2150.5C 3229.68,2149.73 3232.02,2149.07 3234.5,2148.5C 3234.83,2148.83 3235.17,2149.17 3235.5,2149.5C 3232.81,2154.23 3230.14,2158.9 3227.5,2163.5 Z"/></g>
<g><path style="opacity:0.99" fill="#0b7f42" d="M 3227.5,2150.5 C 3227.5,2154.83 3227.5,2159.17 3227.5,2163.5C 3205.01,2205.14 3182.51,2246.81 3160,2288.5C 3157.37,2294.27 3153.87,2299.44 3149.5,2304C 3147.28,2305.28 3144.95,2306.28 3142.5,2307C 3058.72,2319.69 2976.39,2338.53 2895.5,2363.5C 2895.5,2328.83 2895.5,2294.17 2895.5,2259.5C 2932.08,2244.02 2969.41,2230.19 3007.5,2218C 3080.64,2194.79 3153.97,2172.29 3227.5,2150.5 Z"/></g>
<g><path style="opacity:0.915" fill="#7f9b3d" d="M 2340.5,2184.5 C 2347.6,2184.3 2352.1,2187.63 2354,2194.5C 2358.13,2214.46 2353.8,2232.46 2341,2248.5C 2334.56,2257.29 2326.73,2264.13 2317.5,2269C 2324.13,2258.25 2330.63,2247.42 2337,2236.5C 2338.98,2229.3 2340.15,2221.97 2340.5,2214.5C 2334.15,2213.85 2327.82,2213.02 2321.5,2212C 2324.83,2204.01 2329,2196.51 2334,2189.5C 2335.97,2187.45 2338.13,2185.78 2340.5,2184.5 Z"/></g>
<g><path style="opacity:0.998" fill="#076139" d="M 1673.5,2227.5 C 1673.5,2415.5 1673.5,2603.5 1673.5,2791.5C 1619.39,2765.24 1564.06,2741.91 1507.5,2721.5C 1507.5,2557.17 1507.5,2392.83 1507.5,2228.5C 1562.82,2223.74 1618.16,2223.41 1673.5,2227.5 Z"/></g>
<g><path style="opacity:0.997" fill="#07673b" d="M 1673.5,2227.5 C 1765.33,2233.9 1855,2251.4 1942.5,2280C 1968.27,2288.56 1993.27,2298.73 2017.5,2310.5C 2017.5,2565.83 2017.5,2821.17 2017.5,3076.5C 1983.84,3063.89 1950.5,3050.39 1917.5,3036C 1836.38,3013.55 1755.05,2992.39 1673.5,2972.5C 1673.5,2958.17 1673.5,2943.83 1673.5,2929.5C 1766.58,2947.91 1858.24,2971.75 1948.5,3001C 1952.63,3001.85 1956.63,3001.52 1960.5,3000C 1964.72,2996.28 1968.39,2992.11 1971.5,2987.5C 1895.13,2925.65 1814.46,2869.82 1729.5,2820C 1710.96,2810.23 1692.3,2800.73 1673.5,2791.5C 1673.5,2603.5 1673.5,2415.5 1673.5,2227.5 Z"/></g>
<g><path style="opacity:0.998" fill="#065f39" d="M 1507.5,2228.5 C 1507.5,2392.83 1507.5,2557.17 1507.5,2721.5C 1489.07,2714.97 1470.74,2708.14 1452.5,2701C 1443.3,2697.65 1433.97,2694.82 1424.5,2692.5C 1424.5,2541.5 1424.5,2390.5 1424.5,2239.5C 1452.08,2235.09 1479.75,2231.43 1507.5,2228.5 Z"/></g>
<g><path style="opacity:0.998" fill="#065e37" d="M 1424.5,2239.5 C 1424.5,2390.5 1424.5,2541.5 1424.5,2692.5C 1408.59,2687.19 1392.59,2682.19 1376.5,2677.5C 1376.5,2535.5 1376.5,2393.5 1376.5,2251.5C 1380.24,2250.47 1383.91,2248.97 1387.5,2247C 1399.81,2244.3 1412.15,2241.8 1424.5,2239.5 Z"/></g>
<g><path style="opacity:0.997" fill="#055a37" d="M 1376.5,2251.5 C 1376.5,2393.5 1376.5,2535.5 1376.5,2677.5C 1327.85,2667.67 1279.18,2657.84 1230.5,2648C 1180.51,2642.97 1130.51,2638.13 1080.5,2633.5C 1080.5,2568.83 1080.5,2504.17 1080.5,2439.5C 1176.93,2377.11 1273.6,2314.94 1370.5,2253C 1372.44,2252.19 1374.44,2251.69 1376.5,2251.5 Z"/></g>
<g><path style="opacity:0.988" fill="#0a7940" d="M 2895.5,2259.5 C 2895.5,2294.17 2895.5,2328.83 2895.5,2363.5C 2815.27,2389.08 2736.6,2418.91 2659.5,2453C 2638.86,2462.65 2618.53,2472.82 2598.5,2483.5C 2598.5,2457.17 2598.5,2430.83 2598.5,2404.5C 2693.3,2347.94 2792.3,2299.6 2895.5,2259.5 Z"/></g>
<g><path style="opacity:0.996" fill="#086d3c" d="M 2017.5,2310.5 C 2028.05,2314.78 2038.39,2319.61 2048.5,2325C 2071.34,2337.92 2094.34,2350.59 2117.5,2363C 2148.94,2382.44 2179.27,2403.44 2208.5,2426C 2225.61,2442.79 2243.61,2458.45 2262.5,2473C 2275.74,2486.71 2289.08,2500.21 2302.5,2513.5C 2302.5,2575.83 2302.5,2638.17 2302.5,2700.5C 2255.56,2748.93 2215.73,2802.6 2183,2861.5C 2172.4,2881.75 2161.4,2901.75 2150,2921.5C 2148.29,2923.91 2147.46,2926.58 2147.5,2929.5C 2156.86,2930.74 2166.19,2932.07 2175.5,2933.5C 2176.5,2933 2177.5,2932.5 2178.5,2932C 2206.83,2902.33 2235.17,2872.67 2263.5,2843C 2276.08,2831.25 2289.08,2820.08 2302.5,2809.5C 2302.5,2825.17 2302.5,2840.83 2302.5,2856.5C 2287.69,2869.8 2272.69,2882.97 2257.5,2896C 2241.83,2910.33 2226.83,2925.33 2212.5,2941C 2222.99,2946.17 2233.99,2949.5 2245.5,2951C 2264.38,2937.28 2283.38,2923.78 2302.5,2910.5C 2302.5,2920.83 2302.5,2931.17 2302.5,2941.5C 2291.34,2948.47 2280,2955.3 2268.5,2962C 2270.21,2964.04 2272.21,2965.71 2274.5,2967C 2284.06,2972.27 2293.39,2977.77 2302.5,2983.5C 2302.5,3005.5 2302.5,3027.5 2302.5,3049.5C 2243.58,3069.97 2184.91,3091.14 2126.5,3113C 2118.53,3114.22 2110.87,3113.22 2103.5,3110C 2074.92,3098.53 2046.26,3087.36 2017.5,3076.5C 2017.5,2821.17 2017.5,2565.83 2017.5,2310.5 Z"/></g>
<g><path style="opacity:0.985" fill="#0d8a45" d="M 3524.5,2508.5 C 3524.5,2465.17 3524.5,2421.83 3524.5,2378.5C 3581.71,2372.31 3639.04,2368.15 3696.5,2366C 3645.17,2412 3593.83,2458 3542.5,2504C 3536.94,2507.21 3530.94,2508.71 3524.5,2508.5 Z"/></g>
<g><path style="opacity:0.994" fill="#0c8845" d="M 3524.5,2378.5 C 3524.5,2421.83 3524.5,2465.17 3524.5,2508.5C 3496.82,2507.87 3469.16,2507.2 3441.5,2506.5C 3441.5,2466.5 3441.5,2426.5 3441.5,2386.5C 3469.12,2383.47 3496.79,2380.81 3524.5,2378.5 Z"/></g>
<g><path style="opacity:0.993" fill="#0c8543" d="M 3441.5,2386.5 C 3441.5,2426.5 3441.5,2466.5 3441.5,2506.5C 3370.03,2506.23 3298.69,2509.23 3227.5,2515.5C 3227.5,2482.83 3227.5,2450.17 3227.5,2417.5C 3298.24,2404.01 3369.58,2393.68 3441.5,2386.5 Z"/></g>
<g><path style="opacity:0.983" fill="#09743f" d="M 2598.5,2404.5 C 2598.5,2430.83 2598.5,2457.17 2598.5,2483.5C 2540.5,2513.9 2485.16,2548.23 2432.5,2586.5C 2432.5,2563.83 2432.5,2541.17 2432.5,2518.5C 2484.81,2476.21 2540.14,2438.21 2598.5,2404.5 Z"/></g>
<g><path style="opacity:0.99" fill="#0b8042" d="M 3227.5,2417.5 C 3227.5,2450.17 3227.5,2482.83 3227.5,2515.5C 3115.52,2526.28 3004.85,2545.28 2895.5,2572.5C 2895.5,2547.83 2895.5,2523.17 2895.5,2498.5C 2965.23,2477.31 3035.56,2457.81 3106.5,2440C 3146.59,2431.15 3186.93,2423.65 3227.5,2417.5 Z"/></g>
<g><path style="opacity:0.99" fill="#045535" d="M 1080.5,2439.5 C 1080.5,2504.17 1080.5,2568.83 1080.5,2633.5C 1026.89,2630.21 973.222,2629.04 919.5,2630C 878.085,2632.17 836.752,2635.34 795.5,2639.5C 795.5,2633.83 795.5,2628.17 795.5,2622.5C 890.33,2561.25 985.33,2500.25 1080.5,2439.5 Z"/></g>
<g><path style="opacity:0.985" fill="#0a7940" d="M 2895.5,2498.5 C 2895.5,2523.17 2895.5,2547.83 2895.5,2572.5C 2793.55,2598.15 2694.55,2632.15 2598.5,2674.5C 2598.5,2654.83 2598.5,2635.17 2598.5,2615.5C 2693.82,2567.28 2792.82,2528.28 2895.5,2498.5 Z"/></g>
<g><path style="opacity:0.985" fill="#09713e" d="M 2302.5,2513.5 C 2316.47,2528.3 2330.3,2543.3 2344,2558.5C 2347.91,2563.32 2351.58,2568.32 2355,2573.5C 2359.03,2577.26 2363.2,2577.42 2367.5,2574C 2388.16,2554.17 2409.82,2535.67 2432.5,2518.5C 2432.5,2541.17 2432.5,2563.83 2432.5,2586.5C 2386.47,2621.18 2343.14,2659.18 2302.5,2700.5C 2302.5,2638.17 2302.5,2575.83 2302.5,2513.5 Z"/></g>
<g><path style="opacity:0.98" fill="#09743f" d="M 2598.5,2615.5 C 2598.5,2635.17 2598.5,2654.83 2598.5,2674.5C 2540.66,2700.74 2485.33,2731.07 2432.5,2765.5C 2432.5,2747.5 2432.5,2729.5 2432.5,2711.5C 2485.51,2675.98 2540.84,2643.98 2598.5,2615.5 Z"/></g>
<g><path style="opacity:0.895" fill="#045134" d="M 795.5,2622.5 C 795.5,2628.17 795.5,2633.83 795.5,2639.5C 784.876,2641.03 774.21,2641.86 763.5,2642C 774.028,2635.24 784.695,2628.74 795.5,2622.5 Z"/></g>
<g><path style="opacity:0.989" fill="#0b8042" d="M 3227.5,2662.5 C 3227.5,2686.17 3227.5,2709.83 3227.5,2733.5C 3142.06,2733.82 3056.73,2737.32 2971.5,2744C 2946.11,2746.36 2920.77,2749.19 2895.5,2752.5C 2895.5,2729.17 2895.5,2705.83 2895.5,2682.5C 3005.52,2664.64 3116.19,2657.97 3227.5,2662.5 Z"/></g>
<g><path style="opacity:0.982" fill="#0c8443" d="M 3227.5,2662.5 C 3283.56,2665.39 3339.56,2669.22 3395.5,2674C 3407.92,2675.11 3420.25,2676.77 3432.5,2679C 3392.55,2698.14 3352.22,2716.47 3311.5,2734C 3307.19,2734.97 3302.86,2735.81 3298.5,2736.5C 3274.86,2735.11 3251.19,2734.11 3227.5,2733.5C 3227.5,2709.83 3227.5,2686.17 3227.5,2662.5 Z"/></g>
<g><path style="opacity:0.986" fill="#0a7940" d="M 2895.5,2682.5 C 2895.5,2705.83 2895.5,2729.17 2895.5,2752.5C 2794.81,2766.64 2695.81,2788.3 2598.5,2817.5C 2598.5,2798.17 2598.5,2778.83 2598.5,2759.5C 2694.58,2722.73 2793.58,2697.06 2895.5,2682.5 Z"/></g>
<g><path style="opacity:0.975" fill="#09713e" d="M 2432.5,2711.5 C 2432.5,2729.5 2432.5,2747.5 2432.5,2765.5C 2388.04,2794.3 2344.71,2824.63 2302.5,2856.5C 2302.5,2840.83 2302.5,2825.17 2302.5,2809.5C 2344,2774.41 2387.34,2741.75 2432.5,2711.5 Z"/></g>
<g><path style="opacity:0.979" fill="#09743f" d="M 2598.5,2759.5 C 2598.5,2778.83 2598.5,2798.17 2598.5,2817.5C 2542.04,2834.54 2486.71,2854.54 2432.5,2877.5C 2432.5,2862.83 2432.5,2848.17 2432.5,2833.5C 2486.11,2805.03 2541.45,2780.36 2598.5,2759.5 Z"/></g>
<g><path style="opacity:0.97" fill="#09713e" d="M 2432.5,2833.5 C 2432.5,2848.17 2432.5,2862.83 2432.5,2877.5C 2388.4,2897.21 2345.07,2918.55 2302.5,2941.5C 2302.5,2931.17 2302.5,2920.83 2302.5,2910.5C 2344.21,2882.3 2387.54,2856.64 2432.5,2833.5 Z"/></g>
<g><path style="opacity:0.966" fill="#045435" d="M 1080.5,2870.5 C 1080.5,2880.5 1080.5,2890.5 1080.5,2900.5C 985.488,2896.33 890.488,2892.66 795.5,2889.5C 795.5,2885.5 795.5,2881.5 795.5,2877.5C 890.459,2873.51 985.459,2871.18 1080.5,2870.5 Z"/></g>
<g><path style="opacity:0.979" fill="#055a37" d="M 1080.5,2870.5 C 1179.41,2870.38 1278.07,2875.05 1376.5,2884.5C 1376.5,2897.5 1376.5,2910.5 1376.5,2923.5C 1278.05,2912.36 1179.38,2904.7 1080.5,2900.5C 1080.5,2890.5 1080.5,2880.5 1080.5,2870.5 Z"/></g>
<g><path style="opacity:0.9" fill="#045034" d="M 795.5,2877.5 C 795.5,2881.5 795.5,2885.5 795.5,2889.5C 762.497,2889.27 729.497,2888.77 696.5,2888C 687.399,2887.94 678.399,2887.28 669.5,2886C 711.429,2882.17 753.429,2879.34 795.5,2877.5 Z"/></g>
<g><path style="opacity:0.98" fill="#065e37" d="M 1376.5,2884.5 C 1392.55,2885.77 1408.55,2887.44 1424.5,2889.5C 1424.5,2902.83 1424.5,2916.17 1424.5,2929.5C 1408.46,2927.66 1392.46,2925.66 1376.5,2923.5C 1376.5,2910.5 1376.5,2897.5 1376.5,2884.5 Z"/></g>
<g><path style="opacity:0.98" fill="#065f39" d="M 1424.5,2889.5 C 1452.4,2892.44 1480.07,2896.11 1507.5,2900.5C 1507.5,2914.5 1507.5,2928.5 1507.5,2942.5C 1479.78,2938.26 1452.12,2933.92 1424.5,2929.5C 1424.5,2916.17 1424.5,2902.83 1424.5,2889.5 Z"/></g>
<g><path style="opacity:0.98" fill="#076139" d="M 1507.5,2900.5 C 1563.33,2908.03 1618.67,2917.69 1673.5,2929.5C 1673.5,2943.83 1673.5,2958.17 1673.5,2972.5C 1618.33,2961.6 1563,2951.6 1507.5,2942.5C 1507.5,2928.5 1507.5,2914.5 1507.5,2900.5 Z"/></g>
<g><path style="opacity:0.968" fill="#0a7940" d="M 2895.5,2927.5 C 2895.5,2934.5 2895.5,2941.5 2895.5,2948.5C 2830.96,2952.3 2766.46,2956.97 2702,2962.5C 2667.29,2965.57 2632.79,2969.9 2598.5,2975.5C 2598.5,2966.5 2598.5,2957.5 2598.5,2948.5C 2696.94,2934.38 2795.94,2927.38 2895.5,2927.5 Z"/></g>
<g><path style="opacity:0.934" fill="#0b7e41" d="M 2895.5,2927.5 C 2975.9,2928.38 3056.23,2931.21 3136.5,2936C 3143.94,2936.48 3151.28,2937.48 3158.5,2939C 3070.76,2940.27 2983.09,2943.44 2895.5,2948.5C 2895.5,2941.5 2895.5,2934.5 2895.5,2927.5 Z"/></g>
<g><path style="opacity:0.969" fill="#09743f" d="M 2598.5,2948.5 C 2598.5,2957.5 2598.5,2966.5 2598.5,2975.5C 2542.49,2983.67 2487.16,2995 2432.5,3009.5C 2432.5,2999.5 2432.5,2989.5 2432.5,2979.5C 2487.27,2966.35 2542.61,2956.01 2598.5,2948.5 Z"/></g>
<g><path style="opacity:0.973" fill="#09713e" d="M 2432.5,2979.5 C 2432.5,2989.5 2432.5,2999.5 2432.5,3009.5C 2388.47,3020.62 2345.14,3033.95 2302.5,3049.5C 2302.5,3027.5 2302.5,3005.5 2302.5,2983.5C 2313.26,2989.08 2323.93,2994.91 2334.5,3001C 2337.11,3001.82 2339.77,3002.32 2342.5,3002.5C 2372.33,2994.21 2402.33,2986.54 2432.5,2979.5 Z"/></g>
<g><path style="opacity:0.955" fill="#044f33" d="M 1945.5,3195.5 C 1951.18,3195.33 1956.84,3195.5 1962.5,3196C 1971.9,3198.07 1977.07,3203.9 1978,3213.5C 1978.5,3222.83 1978.67,3232.16 1978.5,3241.5C 1954.17,3241.5 1929.83,3241.5 1905.5,3241.5C 1905.5,3236.83 1905.5,3232.17 1905.5,3227.5C 1909.23,3227.82 1912.89,3227.49 1916.5,3226.5C 1921.12,3211.22 1930.79,3200.89 1945.5,3195.5 Z M 1950.5,3209.5 C 1954.17,3209.33 1956.67,3210.99 1958,3214.5C 1958.5,3218.82 1958.67,3223.15 1958.5,3227.5C 1950.8,3227.83 1943.14,3227.5 1935.5,3226.5C 1938.78,3219.23 1943.78,3213.56 1950.5,3209.5 Z"/></g>
<g><path style="opacity:0.972" fill="#044f33" d="M 1411.5,3221.5 C 1412.83,3227.8 1413.5,3234.46 1413.5,3241.5C 1413.49,3248.41 1413.16,3255.24 1412.5,3262C 1378.99,3279.92 1345.32,3297.59 1311.5,3315C 1366.05,3334.23 1395.89,3372.73 1401,3430.5C 1401.5,3437.49 1401.67,3444.49 1401.5,3451.5C 1428.17,3451.5 1454.83,3451.5 1481.5,3451.5C 1481.5,3375.5 1481.5,3299.5 1481.5,3223.5C 1492.5,3223.5 1503.5,3223.5 1514.5,3223.5C 1514.5,3309.17 1514.5,3394.83 1514.5,3480.5C 1415.17,3480.5 1315.83,3480.5 1216.5,3480.5C 1217.91,3501.39 1213.74,3521.06 1204,3539.5C 1192.27,3554.95 1176.77,3564.12 1157.5,3567C 1144.52,3568.77 1131.52,3568.94 1118.5,3567.5C 1119.28,3556.48 1120.28,3545.48 1121.5,3534.5C 1134.69,3536.41 1147.69,3535.58 1160.5,3532C 1171.23,3527.6 1178.06,3519.77 1181,3508.5C 1182.64,3503.29 1183.64,3497.95 1184,3492.5C 1184.5,3434.5 1184.67,3376.5 1184.5,3318.5C 1195.17,3318.5 1205.83,3318.5 1216.5,3318.5C 1216.5,3362.83 1216.5,3407.17 1216.5,3451.5C 1267.5,3451.5 1318.5,3451.5 1369.5,3451.5C 1367.34,3393.52 1338.34,3357.02 1282.5,3342C 1274.92,3340.18 1267.26,3339.01 1259.5,3338.5C 1259.33,3328.49 1259.5,3318.49 1260,3308.5C 1310.81,3279.85 1361.31,3250.85 1411.5,3221.5 Z"/></g>
<g><path style="opacity:0.961" fill="#044f33" d="M 1580.5,3222.5 C 1590.55,3222.19 1600.55,3222.52 1610.5,3223.5C 1611.5,3309.16 1611.83,3394.83 1611.5,3480.5C 1600.5,3480.5 1589.5,3480.5 1578.5,3480.5C 1578.5,3403.17 1578.5,3325.83 1578.5,3248.5C 1568.55,3247.06 1558.55,3246.06 1548.5,3245.5C 1548.5,3238.83 1548.5,3232.17 1548.5,3225.5C 1559.3,3224.42 1569.97,3223.42 1580.5,3222.5 Z"/></g>
<g><path style="opacity:0.986" fill="#044f33" d="M 2482.5,3222.5 C 2492.55,3222.19 2502.55,3222.52 2512.5,3223.5C 2513.5,3309.16 2513.83,3394.83 2513.5,3480.5C 2502.83,3480.5 2492.17,3480.5 2481.5,3480.5C 2481.5,3403.17 2481.5,3325.83 2481.5,3248.5C 2471.22,3247.04 2460.88,3246.04 2450.5,3245.5C 2450.5,3238.83 2450.5,3232.17 2450.5,3225.5C 2461.31,3224.42 2471.97,3223.42 2482.5,3222.5 Z"/></g>
<g><path style="opacity:0.976" fill="#044f33" d="M 2383.5,3223.5 C 2394.5,3223.5 2405.5,3223.5 2416.5,3223.5C 2416.5,3309.17 2416.5,3394.83 2416.5,3480.5C 2307.17,3480.5 2197.83,3480.5 2088.5,3480.5C 2089.19,3497.35 2086.69,3513.68 2081,3529.5C 2070.36,3551.42 2052.86,3563.92 2028.5,3567C 2015.5,3568.97 2002.5,3568.97 1989.5,3567C 1991.06,3556.24 1992.39,3545.4 1993.5,3534.5C 2007.49,3536.68 2021.15,3535.52 2034.5,3531C 2045.14,3525.34 2051.64,3516.51 2054,3504.5C 2054.96,3499.88 2055.62,3495.21 2056,3490.5C 2056.5,3433.17 2056.67,3375.83 2056.5,3318.5C 2067.17,3318.5 2077.83,3318.5 2088.5,3318.5C 2088.5,3362.83 2088.5,3407.17 2088.5,3451.5C 2119.5,3451.67 2150.5,3451.5 2181.5,3451C 2166.26,3429.13 2161.09,3404.96 2166,3378.5C 2172.32,3346.35 2191.16,3325.51 2222.5,3316C 2249.56,3309.48 2273.89,3314.81 2295.5,3332C 2311.13,3349.36 2318.79,3369.86 2318.5,3393.5C 2318.65,3414.88 2312.32,3434.05 2299.5,3451C 2327.5,3451.5 2355.5,3451.67 2383.5,3451.5C 2383.5,3375.5 2383.5,3299.5 2383.5,3223.5 Z M 2233.5,3340.5 C 2256.31,3338.64 2271.81,3348.31 2280,3369.5C 2285.92,3387.16 2285.92,3404.83 2280,3422.5C 2269.08,3449.37 2249.91,3457.87 2222.5,3448C 2212.96,3441.43 2206.46,3432.6 2203,3421.5C 2196.15,3399.8 2197.82,3378.8 2208,3358.5C 2214.42,3349.39 2222.92,3343.39 2233.5,3340.5 Z"/></g>
<g><path style="opacity:0.975" fill="#044f33" d="M 2642.5,3223.5 C 2653.17,3223.5 2663.83,3223.5 2674.5,3223.5C 2674.67,3270.17 2674.5,3316.83 2674,3363.5C 2673.06,3376.88 2672.06,3390.21 2671,3403.5C 2684.24,3375.26 2703.08,3351.42 2727.5,3332C 2754.5,3311.22 2783.5,3307.88 2814.5,3322C 2833.65,3335.79 2843.82,3354.62 2845,3378.5C 2845.5,3402.83 2845.67,3427.16 2845.5,3451.5C 2872.83,3451.5 2900.17,3451.5 2927.5,3451.5C 2927.5,3407.17 2927.5,3362.83 2927.5,3318.5C 2938.5,3318.5 2949.5,3318.5 2960.5,3318.5C 2960.5,3362.83 2960.5,3407.17 2960.5,3451.5C 2989.17,3451.67 3017.84,3451.5 3046.5,3451C 3037.32,3439.45 3031.82,3426.29 3030,3411.5C 3025.26,3379.71 3034.43,3352.88 3057.5,3331C 3079.4,3314.75 3103.74,3309.75 3130.5,3316C 3161.14,3325.65 3178.31,3346.48 3182,3378.5C 3186.37,3405.51 3180.21,3429.67 3163.5,3451C 3218.83,3451.5 3274.17,3451.67 3329.5,3451.5C 3329.67,3435.16 3329.5,3418.83 3329,3402.5C 3326.15,3370.99 3308.99,3353.15 3277.5,3349C 3259.52,3347.23 3241.52,3347.06 3223.5,3348.5C 3224.5,3340.51 3225.5,3332.51 3226.5,3324.5C 3226.65,3322.68 3227.32,3321.18 3228.5,3320C 3248.88,3317.78 3269.21,3318.11 3289.5,3321C 3323.34,3324.47 3346.17,3341.97 3358,3373.5C 3360.64,3383.32 3361.97,3393.32 3362,3403.5C 3362.5,3419.5 3362.67,3435.5 3362.5,3451.5C 3389.5,3451.5 3416.5,3451.5 3443.5,3451.5C 3443.5,3407.17 3443.5,3362.83 3443.5,3318.5C 3454.5,3318.5 3465.5,3318.5 3476.5,3318.5C 3476.5,3362.83 3476.5,3407.17 3476.5,3451.5C 3503.17,3451.5 3529.83,3451.5 3556.5,3451.5C 3556.5,3375.5 3556.5,3299.5 3556.5,3223.5C 3567.17,3223.5 3577.83,3223.5 3588.5,3223.5C 3588.5,3309.17 3588.5,3394.83 3588.5,3480.5C 3256.5,3480.5 2924.5,3480.5 2592.5,3480.5C 2592.5,3470.83 2592.5,3461.17 2592.5,3451.5C 2609.17,3451.5 2625.83,3451.5 2642.5,3451.5C 2642.5,3375.5 2642.5,3299.5 2642.5,3223.5 Z M 3098.5,3340.5 C 3123.18,3339.43 3139.02,3350.76 3146,3374.5C 3149.99,3392.13 3148.99,3409.46 3143,3426.5C 3131.4,3449.54 3113.23,3457.04 3088.5,3449C 3077.57,3442 3070.4,3432.17 3067,3419.5C 3061.1,3398.82 3062.77,3378.82 3072,3359.5C 3078.24,3349.41 3087.07,3343.08 3098.5,3340.5 Z M 2767.5,3342.5 C 2786.92,3341.12 2800.09,3349.45 2807,3367.5C 2809.11,3374.69 2810.44,3382.03 2811,3389.5C 2811.5,3410.16 2811.67,3430.83 2811.5,3451.5C 2766.16,3451.83 2720.83,3451.5 2675.5,3450.5C 2688.17,3413.3 2709.17,3381.8 2738.5,3356C 2747.3,3349.46 2756.97,3344.96 2767.5,3342.5 Z"/></g>
<g><path style="opacity:0.959" fill="#044f33" d="M 2205.5,3235.5 C 2224.79,3234.96 2233.62,3244.29 2232,3263.5C 2225.77,3279.91 2214.61,3284.41 2198.5,3277C 2188.79,3267.59 2186.96,3256.76 2193,3244.5C 2196.3,3240.12 2200.47,3237.12 2205.5,3235.5 Z"/></g>
<g><path style="opacity:0.957" fill="#044f33" d="M 2259.5,3235.5 C 2278.28,3235.44 2286.78,3244.78 2285,3263.5C 2280.14,3278.85 2269.97,3284.02 2254.5,3279C 2242.45,3270.84 2239.28,3260.01 2245,3246.5C 2248.55,3240.99 2253.38,3237.33 2259.5,3235.5 Z"/></g>
<g><path style="opacity:0.958" fill="#044f33" d="M 3096.5,3238.5 C 3117.22,3237.39 3125.72,3247.06 3122,3267.5C 3115.39,3281.03 3105.22,3284.53 3091.5,3278C 3082.7,3270.6 3080.2,3261.43 3084,3250.5C 3086.77,3244.89 3090.94,3240.89 3096.5,3238.5 Z"/></g>
<g><path style="opacity:0.956" fill="#044f33" d="M 3428.5,3245.5 C 3445.82,3243.3 3455.15,3250.8 3456.5,3268C 3454.53,3286.29 3444.53,3293.29 3426.5,3289C 3414.84,3281.92 3411.01,3271.75 3415,3258.5C 3418.1,3252.56 3422.6,3248.23 3428.5,3245.5 Z"/></g>
<g><path style="opacity:0.957" fill="#044f33" d="M 3483.5,3245.5 C 3503.87,3245.19 3512.37,3255.19 3509,3275.5C 3502.71,3289.83 3492.21,3293.99 3477.5,3288C 3466.73,3279.15 3464.23,3268.32 3470,3255.5C 3473.55,3250.77 3478.05,3247.43 3483.5,3245.5 Z"/></g>
<g><path style="opacity:0.958" fill="#044f33" d="M 2720.5,3247.5 C 2735.44,3246.94 2743.77,3254.1 2745.5,3269C 2742.14,3288.85 2731.14,3294.85 2712.5,3287C 2704.98,3280.07 2702.48,3271.57 2705,3261.5C 2707.88,3254.11 2713.04,3249.45 2720.5,3247.5 Z"/></g>
<g><path style="opacity:0.987" fill="#044f33" d="M 1927.5,3269.5 C 1942.17,3269.5 1956.83,3269.5 1971.5,3269.5C 1971.5,3339.83 1971.5,3410.17 1971.5,3480.5C 1960.83,3480.5 1950.17,3480.5 1939.5,3480.5C 1939.5,3418.5 1939.5,3356.5 1939.5,3294.5C 1929.17,3293.43 1918.84,3292.43 1908.5,3291.5C 1908.5,3284.83 1908.5,3278.17 1908.5,3271.5C 1915.02,3271.21 1921.35,3270.54 1927.5,3269.5 Z"/></g>
<g><path style="opacity:0.956" fill="#044f33" d="M 1792.5,3305.5 C 1810.04,3305.88 1817.88,3314.88 1816,3332.5C 1812.18,3346 1803.35,3351.17 1789.5,3348C 1778.19,3342.78 1773.69,3333.94 1776,3321.5C 1778.79,3313.21 1784.29,3307.88 1792.5,3305.5 Z"/></g>
<g><path style="opacity:0.971" fill="#044f33" d="M 899.5,3313.5 C 944.855,3310.04 970.689,3330.71 977,3375.5C 978.375,3400.81 978.875,3426.14 978.5,3451.5C 1004.83,3451.5 1031.17,3451.5 1057.5,3451.5C 1057.5,3407.17 1057.5,3362.83 1057.5,3318.5C 1068.5,3318.5 1079.5,3318.5 1090.5,3318.5C 1090.5,3372.5 1090.5,3426.5 1090.5,3480.5C 1026.17,3480.67 961.832,3480.5 897.5,3480C 885.757,3479.57 875.091,3476.07 865.5,3469.5C 866.715,3495.33 859.881,3518.66 845,3539.5C 826.794,3558.86 804.294,3568.19 777.5,3567.5C 778.014,3555.49 778.68,3543.49 779.5,3531.5C 810.303,3532.03 827.137,3517.03 830,3486.5C 830.333,3453.83 830.667,3421.17 831,3388.5C 834.724,3345.62 857.558,3320.62 899.5,3313.5 Z M 898.5,3340.5 C 925.776,3339.93 941.276,3353.27 945,3380.5C 945.5,3404.16 945.667,3427.83 945.5,3451.5C 879.405,3459.58 853.905,3431.24 869,3366.5C 874.064,3352.26 883.897,3343.59 898.5,3340.5 Z"/></g>
<g><path style="opacity:0.975" fill="#044f33" d="M 1849.5,3318.5 C 1860.17,3318.5 1870.83,3318.5 1881.5,3318.5C 1881.67,3368.17 1881.5,3417.83 1881,3467.5C 1880.19,3489.21 1875.19,3509.88 1866,3529.5C 1855.22,3548.6 1839.05,3560.44 1817.5,3565C 1749.1,3576.92 1711.6,3548.42 1705,3479.5C 1703.02,3451.94 1706.02,3424.94 1714,3398.5C 1714.39,3397.57 1715.05,3396.91 1716,3396.5C 1727.43,3393.96 1738.93,3392.12 1750.5,3391C 1737.48,3426.87 1735.31,3463.37 1744,3500.5C 1753.65,3529.8 1773.82,3542.3 1804.5,3538C 1824.61,3532.56 1837.44,3519.73 1843,3499.5C 1846.88,3484.76 1848.88,3469.76 1849,3454.5C 1849.5,3409.17 1849.67,3363.83 1849.5,3318.5 Z"/></g>
<g><path style="opacity:0.957" fill="#044f33" d="M 1027.5,3508.5 C 1040.54,3506.43 1049.37,3511.43 1054,3523.5C 1057.49,3537.68 1052.66,3547.51 1039.5,3553C 1022.67,3555.25 1013.33,3547.91 1011.5,3531C 1012.34,3520.1 1017.67,3512.6 1027.5,3508.5 Z"/></g>
<g><path style="opacity:0.96" fill="#044f33" d="M 1083.5,3508.5 C 1101.25,3508.75 1109.42,3517.75 1108,3535.5C 1102.96,3552.6 1092.13,3557.77 1075.5,3551C 1064.79,3541.6 1062.63,3530.44 1069,3517.5C 1073.02,3512.95 1077.85,3509.95 1083.5,3508.5 Z"/></g>
<g><path style="opacity:0.962" fill="#044f33" d="M 2899.5,3508.5 C 2921.06,3507.22 2930.23,3517.22 2927,3538.5C 2921.41,3551.21 2911.91,3555.71 2898.5,3552C 2886.79,3545.4 2882.62,3535.57 2886,3522.5C 2888.69,3515.98 2893.19,3511.31 2899.5,3508.5 Z"/></g>
<g><path style="opacity:0.96" fill="#044f33" d="M 2954.5,3508.5 C 2973.28,3507.78 2982.11,3516.78 2981,3535.5C 2975.32,3552.73 2964.16,3557.57 2947.5,3550C 2937.72,3540.6 2935.89,3529.77 2942,3517.5C 2945.3,3513.12 2949.47,3510.12 2954.5,3508.5 Z"/></g>
<g><path style="opacity:0.943" fill="#586829" d="M 987.5,3630.5 C 1023.42,3627.26 1042.59,3643.59 1045,3679.5C 1045.94,3722.52 1045.61,3765.52 1044,3808.5C 1040.69,3829.81 1028.52,3842.65 1007.5,3847C 973.903,3850.72 955.069,3835.89 951,3802.5C 950.333,3759.83 950.333,3717.17 951,3674.5C 953.004,3651.03 965.17,3636.36 987.5,3630.5 Z M 988.5,3644.5 C 1014.66,3641.49 1028.49,3653.16 1030,3679.5C 1030.95,3721.86 1030.62,3764.19 1029,3806.5C 1024.03,3828.11 1010.53,3836.94 988.5,3833C 979.596,3831.1 973.429,3825.93 970,3817.5C 968.052,3812.66 966.719,3807.66 966,3802.5C 965.333,3760.17 965.333,3717.83 966,3675.5C 966.794,3664.07 971.628,3654.91 980.5,3648C 983.309,3646.91 985.976,3645.74 988.5,3644.5 Z"/></g>
<g><path style="opacity:0.937" fill="#586829" d="M 1178.5,3630.5 C 1197.06,3627.41 1212.56,3632.74 1225,3646.5C 1228.75,3652 1231.41,3658 1233,3664.5C 1234.9,3676.42 1235.73,3688.42 1235.5,3700.5C 1230.5,3700.5 1225.5,3700.5 1220.5,3700.5C 1220.84,3689.78 1220.34,3679.12 1219,3668.5C 1213.27,3649.37 1200.44,3641.54 1180.5,3645C 1172.99,3646.84 1167.15,3651 1163,3657.5C 1160.41,3662.53 1158.74,3667.87 1158,3673.5C 1157.33,3717.17 1157.33,3760.83 1158,3804.5C 1161.52,3825.67 1174.02,3835.17 1195.5,3833C 1210.53,3828.97 1218.69,3819.13 1220,3803.5C 1220.5,3785.17 1220.67,3766.84 1220.5,3748.5C 1211.17,3748.5 1201.83,3748.5 1192.5,3748.5C 1192.5,3744.17 1192.5,3739.83 1192.5,3735.5C 1206.83,3735.5 1221.17,3735.5 1235.5,3735.5C 1235.88,3759.53 1235.38,3783.53 1234,3807.5C 1228.13,3838.2 1209.63,3851.37 1178.5,3847C 1156.66,3841.82 1144.83,3827.99 1143,3805.5C 1142.33,3761.17 1142.33,3716.83 1143,3672.5C 1145.02,3650 1156.85,3636 1178.5,3630.5 Z"/></g>
<g><path style="opacity:0.941" fill="#586829" d="M 1369.5,3630.5 C 1384.49,3628.4 1398.16,3631.56 1410.5,3640C 1419.46,3648.18 1424.62,3658.34 1426,3670.5C 1427.1,3693.31 1427.6,3716.15 1427.5,3739C 1427.33,3758.17 1427.17,3777.33 1427,3796.5C 1424.5,3836.01 1403.66,3852.51 1364.5,3846C 1344.7,3838.96 1334.2,3824.8 1333,3803.5C 1332.04,3758.14 1332.37,3712.8 1334,3667.5C 1337.61,3647.06 1349.45,3634.72 1369.5,3630.5 Z M 1370.5,3644.5 C 1397.59,3641.75 1411.42,3654.08 1412,3681.5C 1412.95,3722.86 1412.61,3764.19 1411,3805.5C 1406.47,3827.69 1392.97,3836.86 1370.5,3833C 1361.6,3831.1 1355.43,3825.93 1352,3817.5C 1349.89,3812.72 1348.55,3807.72 1348,3802.5C 1347.33,3760.17 1347.33,3717.83 1348,3675.5C 1348.95,3660.09 1356.45,3649.76 1370.5,3644.5 Z"/></g>
<g><path style="opacity:0.952" fill="#586829" d="M 2657.5,3630.5 C 2688.66,3626.8 2707.49,3640.14 2714,3670.5C 2714.98,3717.87 2714.64,3765.2 2713,3812.5C 2708.69,3831.81 2696.85,3843.31 2677.5,3847C 2644.83,3850.98 2626,3836.81 2621,3804.5C 2620.03,3758.8 2620.36,3713.13 2622,3667.5C 2625.6,3647.07 2637.44,3634.73 2657.5,3630.5 Z M 2658.5,3644.5 C 2676.94,3640.89 2689.77,3647.56 2697,3664.5C 2698.79,3670.37 2699.79,3676.37 2700,3682.5C 2700.93,3723.52 2700.6,3764.52 2699,3805.5C 2694.48,3827.69 2680.98,3836.86 2658.5,3833C 2648.86,3830.69 2642.36,3824.86 2639,3815.5C 2637.69,3811.58 2636.69,3807.58 2636,3803.5C 2635.33,3760.5 2635.33,3717.5 2636,3674.5C 2637.42,3659.62 2644.92,3649.62 2658.5,3644.5 Z"/></g>
<g><path style="opacity:0.932" fill="#586829" d="M 3225.5,3630.5 C 3242.86,3627.59 3257.69,3632.26 3270,3644.5C 3278.58,3658.19 3282.41,3673.19 3281.5,3689.5C 3276.5,3689.5 3271.5,3689.5 3266.5,3689.5C 3267.58,3678.3 3265.74,3667.63 3261,3657.5C 3252.42,3645.8 3240.92,3641.63 3226.5,3645C 3215.09,3648.75 3208.25,3656.59 3206,3668.5C 3202.01,3683.85 3204.68,3697.85 3214,3710.5C 3218.5,3715 3223,3719.5 3227.5,3724C 3238.17,3732 3248.83,3740 3259.5,3748C 3280.57,3767.44 3286.74,3790.94 3278,3818.5C 3272.65,3834.85 3261.48,3844.35 3244.5,3847C 3211.38,3851.03 3192.88,3836.53 3189,3803.5C 3188.5,3796.51 3188.33,3789.51 3188.5,3782.5C 3193.17,3782.5 3197.83,3782.5 3202.5,3782.5C 3201.48,3796.54 3203.98,3809.87 3210,3822.5C 3220.1,3833.07 3232.27,3836.24 3246.5,3832C 3253.93,3829.56 3259.1,3824.73 3262,3817.5C 3271.6,3792.31 3265.77,3771.48 3244.5,3755C 3229.17,3745.02 3215.01,3733.52 3202,3720.5C 3191.29,3706.64 3187.29,3690.98 3190,3673.5C 3191.54,3650.3 3203.38,3635.97 3225.5,3630.5 Z"/></g>
<g><path style="opacity:0.94" fill="#586829" d="M 3536.5,3631.5 C 3543.75,3631.19 3550.92,3631.52 3558,3632.5C 3573.52,3703.25 3589.35,3773.91 3605.5,3844.5C 3600.28,3845.8 3595.11,3845.8 3590,3844.5C 3586.65,3829.45 3583.15,3814.45 3579.5,3799.5C 3557.83,3798.17 3536.17,3798.17 3514.5,3799.5C 3510.85,3814.45 3507.35,3829.45 3504,3844.5C 3499.25,3845.63 3494.42,3845.8 3489.5,3845C 3505.48,3773.92 3521.15,3702.76 3536.5,3631.5 Z M 3546.5,3652.5 C 3556.89,3696.56 3567.22,3740.72 3577.5,3785C 3557.17,3785.67 3536.83,3785.67 3516.5,3785C 3526.73,3740.9 3536.73,3696.74 3546.5,3652.5 Z"/></g>
<g><path style="opacity:0.952" fill="#586829" d="M 760.5,3632.5 C 779.836,3632.33 799.17,3632.5 818.5,3633C 836.874,3636.04 847.041,3646.88 849,3665.5C 849.909,3679.55 849.575,3693.55 848,3707.5C 845.279,3720.55 837.446,3728.72 824.5,3732C 841.995,3736.83 851.495,3748.33 853,3766.5C 853.667,3780.17 853.667,3793.83 853,3807.5C 850.796,3828.7 839.296,3841.2 818.5,3845C 799.17,3845.5 779.836,3845.67 760.5,3845.5C 760.5,3774.5 760.5,3703.5 760.5,3632.5 Z M 775.5,3645.5 C 786.505,3645.33 797.505,3645.5 808.5,3646C 823.467,3646.23 831.967,3653.73 834,3668.5C 834.667,3680.17 834.667,3691.83 834,3703.5C 832.167,3716 825,3723.17 812.5,3725C 800.197,3726.22 787.863,3726.72 775.5,3726.5C 775.5,3699.5 775.5,3672.5 775.5,3645.5 Z M 775.5,3739.5 C 788.209,3739.15 800.875,3739.65 813.5,3741C 825.723,3742.85 833.556,3749.69 837,3761.5C 839,3777.83 839,3794.17 837,3810.5C 833.155,3824.33 823.989,3831.5 809.5,3832C 798.172,3832.5 786.838,3832.67 775.5,3832.5C 775.5,3801.5 775.5,3770.5 775.5,3739.5 Z"/></g>
<g><path style="opacity:0.949" fill="#586829" d="M 1525.5,3632.5 C 1544.5,3632.33 1563.5,3632.5 1582.5,3633C 1601.54,3636.71 1612.37,3648.21 1615,3667.5C 1617.43,3685.3 1616.76,3702.97 1613,3720.5C 1608.67,3732.16 1600.5,3739.66 1588.5,3743C 1607.48,3750.08 1616.65,3763.92 1616,3784.5C 1616.33,3800.83 1616.67,3817.17 1617,3833.5C 1617.72,3837.65 1619.22,3841.49 1621.5,3845C 1616.17,3845.67 1610.83,3845.67 1605.5,3845C 1604.28,3843.35 1603.45,3841.52 1603,3839.5C 1601.93,3818.19 1600.93,3796.86 1600,3775.5C 1597.39,3761.89 1589.22,3754.06 1575.5,3752C 1563.88,3750.67 1552.21,3750.17 1540.5,3750.5C 1540.5,3782.17 1540.5,3813.83 1540.5,3845.5C 1535.5,3845.5 1530.5,3845.5 1525.5,3845.5C 1525.5,3774.5 1525.5,3703.5 1525.5,3632.5 Z M 1540.5,3645.5 C 1551.17,3645.33 1561.84,3645.5 1572.5,3646C 1586.61,3646.12 1595.44,3652.95 1599,3666.5C 1602.33,3683.5 1602.33,3700.5 1599,3717.5C 1594.99,3728.51 1587.16,3734.68 1575.5,3736C 1563.84,3736.5 1552.17,3736.67 1540.5,3736.5C 1540.5,3706.17 1540.5,3675.83 1540.5,3645.5 Z"/></g>
<g><path style="opacity:0.95" fill="#586829" d="M 2119.5,3632.5 C 2124.5,3632.5 2129.5,3632.5 2134.5,3632.5C 2134.5,3703.5 2134.5,3774.5 2134.5,3845.5C 2129.5,3845.5 2124.5,3845.5 2119.5,3845.5C 2119.5,3774.5 2119.5,3703.5 2119.5,3632.5 Z"/></g>
<g><path style="opacity:0.935" fill="#586829" d="M 2233.5,3632.5 C 2240.17,3632.5 2246.83,3632.5 2253.5,3632.5C 2273.89,3690.84 2294.39,3749.17 2315,3807.5C 2315.5,3749.17 2315.67,3690.83 2315.5,3632.5C 2320.17,3632.5 2324.83,3632.5 2329.5,3632.5C 2329.5,3703.5 2329.5,3774.5 2329.5,3845.5C 2323.37,3846.09 2317.54,3845.43 2312,3843.5C 2290.47,3782.58 2269.14,3721.58 2248,3660.5C 2247.5,3722.17 2247.33,3783.83 2247.5,3845.5C 2242.83,3845.5 2238.17,3845.5 2233.5,3845.5C 2233.5,3774.5 2233.5,3703.5 2233.5,3632.5 Z"/></g>
<g><path style="opacity:0.953" fill="#586829" d="M 2428.5,3632.5 C 2448.17,3632.33 2467.84,3632.5 2487.5,3633C 2510.36,3638.83 2522.19,3653.66 2523,3677.5C 2523.67,3718.5 2523.67,3759.5 2523,3800.5C 2522.24,3824.91 2510.08,3839.75 2486.5,3845C 2467.17,3845.5 2447.84,3845.67 2428.5,3845.5C 2428.5,3774.5 2428.5,3703.5 2428.5,3632.5 Z M 2443.5,3645.5 C 2457.54,3645.13 2471.54,3645.63 2485.5,3647C 2496.07,3650.57 2502.9,3657.74 2506,3668.5C 2506.94,3672.11 2507.61,3675.78 2508,3679.5C 2508.67,3719.5 2508.67,3759.5 2508,3799.5C 2507.51,3812.32 2502.01,3822.16 2491.5,3829C 2489.5,3829.67 2487.5,3830.33 2485.5,3831C 2471.54,3832.34 2457.54,3832.84 2443.5,3832.5C 2443.5,3770.17 2443.5,3707.83 2443.5,3645.5 Z"/></g>
<g><path style="opacity:0.978" fill="#586829" d="M 2813.5,3632.5 C 2819.87,3632.17 2826.2,3632.5 2832.5,3633.5C 2853.43,3691.8 2874.27,3750.13 2895,3808.5C 2895.5,3749.83 2895.67,3691.17 2895.5,3632.5C 2899.83,3632.5 2904.17,3632.5 2908.5,3632.5C 2908.5,3703.5 2908.5,3774.5 2908.5,3845.5C 2903.16,3845.67 2897.82,3845.5 2892.5,3845C 2870.47,3783.26 2848.64,3721.43 2827,3659.5C 2826.5,3721.5 2826.33,3783.5 2826.5,3845.5C 2822.17,3845.5 2817.83,3845.5 2813.5,3845.5C 2813.5,3774.5 2813.5,3703.5 2813.5,3632.5 Z"/></g>
<g><path style="opacity:0.962" fill="#586829" d="M 3007.5,3632.5 C 3035.83,3632.5 3064.17,3632.5 3092.5,3632.5C 3092.5,3636.83 3092.5,3641.17 3092.5,3645.5C 3069.17,3645.5 3045.83,3645.5 3022.5,3645.5C 3022.5,3673.83 3022.5,3702.17 3022.5,3730.5C 3041.83,3730.5 3061.17,3730.5 3080.5,3730.5C 3080.5,3735.17 3080.5,3739.83 3080.5,3744.5C 3061.17,3744.5 3041.83,3744.5 3022.5,3744.5C 3022.5,3773.83 3022.5,3803.17 3022.5,3832.5C 3045.83,3832.5 3069.17,3832.5 3092.5,3832.5C 3092.5,3836.83 3092.5,3841.17 3092.5,3845.5C 3064.17,3845.5 3035.83,3845.5 3007.5,3845.5C 3007.5,3774.5 3007.5,3703.5 3007.5,3632.5 Z"/></g>
<g><path style="opacity:0.934" fill="#586829" d="M 3378.5,3632.5 C 3383.5,3632.5 3388.5,3632.5 3393.5,3632.5C 3393.5,3703.5 3393.5,3774.5 3393.5,3845.5C 3388.5,3845.5 3383.5,3845.5 3378.5,3845.5C 3378.5,3774.5 3378.5,3703.5 3378.5,3632.5 Z"/></g>
<g><path style="opacity:0.983" fill="#586829" d="M 1840.5,3732.5 C 1859.5,3732.5 1878.5,3732.5 1897.5,3732.5C 1897.5,3736.83 1897.5,3741.17 1897.5,3745.5C 1878.5,3745.5 1859.5,3745.5 1840.5,3745.5C 1840.5,3741.17 1840.5,3736.83 1840.5,3732.5 Z"/></g>
</svg>
